<svg width="346" height="245" viewBox="0 0 346 245" fill="none" xmlns="http://www.w3.org/2000/svg">
<g clip-path="url(#clip0_1_540)">
<g clip-path="url(#clip1_1_540)">
<g clip-path="url(#clip2_1_540)">
<g clip-path="url(#clip3_1_540)">
<g clip-path="url(#clip4_1_540)">
<g clip-path="url(#clip5_1_540)">
<path d="M39.6361 210.419C32.2625 210.419 26.4374 208.515 22.1607 204.707C17.8758 200.908 15.7334 195.536 15.7334 188.594C15.7334 184.353 16.4216 180.632 17.798 177.431C19.1662 174.23 21.0997 171.673 23.5986 169.761C28.5553 165.978 35.0891 164.086 43.2001 164.086C48.4435 164.086 53.6869 164.814 58.9304 166.269C60.9377 166.934 61.9413 168.576 61.9413 171.195C61.9413 174.771 60.8352 176.558 58.6232 176.558C58.2545 176.558 57.046 176.392 54.9978 176.059C52.9496 175.727 51.5158 175.56 50.6965 175.56C47.7881 175.56 45.5473 176.587 43.9743 178.641C42.3931 180.703 41.6024 183.16 41.6024 186.012C41.6024 188.856 42.3398 191.358 43.8145 193.52C45.2892 195.682 47.2965 196.804 49.8363 196.887C51.5568 196.971 54.6087 197.012 58.9918 197.012C61.122 197.012 62.2895 198.031 62.4943 200.068C62.6172 200.816 62.6786 201.573 62.6786 202.338C62.6786 203.111 62.6172 203.892 62.4943 204.682C62.2485 206.179 61.1015 207.268 59.0533 207.95C57.0051 208.64 54.0556 209.226 50.205 209.709C46.3543 210.182 42.8314 210.419 39.6361 210.419ZM98.1334 210.419C93.1767 210.419 88.6911 209.763 84.6765 208.449C80.662 207.143 77.4054 205.389 74.9065 203.186C72.4077 200.982 70.5029 198.517 69.192 195.79C67.8811 193.071 67.2257 190.236 67.2257 187.284C67.2257 184.332 67.8893 181.493 69.2166 178.766C70.552 176.047 72.4569 173.586 74.9311 171.382C77.4136 169.179 80.662 167.412 84.6765 166.082C88.6911 164.751 93.0948 164.086 97.8876 164.086C102.68 164.086 106.92 164.689 110.607 165.895C114.294 167.1 117.264 168.742 119.517 170.821C124.105 175.062 126.399 180.092 126.399 185.912C126.399 188.864 125.772 191.753 124.519 194.58C123.273 197.407 121.491 199.972 119.173 202.275C116.862 204.587 113.884 206.478 110.238 207.95C106.593 209.43 102.558 210.253 98.1334 210.419ZM110.3 186.187C110.3 184.216 109.603 182.491 108.211 181.011C106.818 179.539 104.696 178.803 101.845 178.803C99.0018 178.803 96.7406 179.572 95.061 181.11C93.3815 182.649 92.5417 184.519 92.5417 186.723C92.5417 188.926 93.4225 190.693 95.1839 192.023C96.9454 193.354 99.0633 194.019 101.538 194.019C104.02 194.019 106.101 193.208 107.78 191.587C109.46 189.966 110.3 188.165 110.3 186.187ZM132.347 204.807L132.298 170.946C132.625 167.495 134.076 165.687 136.648 165.521C138.492 165.479 150.764 165.458 173.467 165.458C175.925 165.458 177.154 167.308 177.154 171.008C177.154 172.879 176.068 173.814 173.897 173.814H160.502C159.641 173.814 158.953 174.105 158.437 174.687C157.929 175.269 157.675 176.039 157.675 176.995V181.422C157.675 182.711 158.208 183.355 159.273 183.355H169.473C170.456 183.355 171.189 183.584 171.673 184.041C172.164 184.499 172.41 185.546 172.41 187.184C172.41 188.831 172.177 189.882 171.71 190.34C171.243 190.797 170.477 191.026 169.412 191.026H160.256C159.232 191.026 158.523 191.275 158.13 191.774C157.737 192.273 157.54 193.063 157.54 194.144V204.869C157.54 206.324 157.233 207.405 156.618 208.112C156.004 208.819 155.209 209.172 154.234 209.172H136.783C135.636 209.172 134.653 208.786 133.834 208.012C133.015 207.247 132.519 206.179 132.347 204.807ZM182.303 204.807L182.242 170.946C182.569 167.495 184.024 165.687 186.604 165.521C188.448 165.479 200.717 165.458 223.411 165.458C225.869 165.458 227.098 167.308 227.098 171.008C227.098 172.879 226.012 173.814 223.841 173.814H210.446C209.585 173.814 208.901 174.105 208.393 174.687C207.877 175.269 207.619 176.039 207.619 176.995V181.422C207.619 182.711 208.152 183.355 209.217 183.355H219.417C220.4 183.355 221.137 183.584 221.629 184.041C222.12 184.499 222.366 185.546 222.366 187.184C222.366 188.831 222.133 189.882 221.666 190.34C221.191 190.797 220.42 191.026 219.355 191.026H210.2C209.176 191.026 208.471 191.275 208.086 191.774C207.693 192.273 207.496 193.063 207.496 194.144V204.869C207.496 206.324 207.189 207.405 206.574 208.112C205.96 208.819 205.161 209.172 204.178 209.172H186.727C185.58 209.172 184.597 208.786 183.778 208.012C182.958 207.247 182.467 206.179 182.303 204.807ZM236.991 209.172C235.844 209.172 234.873 208.786 234.078 208.012C233.275 207.247 232.763 205.979 232.542 204.208C232.312 202.446 232.198 197.145 232.198 188.307C232.198 179.477 232.341 173.71 232.628 171.008C232.956 167.516 234.41 165.728 236.991 165.645C239.94 165.562 252.168 165.521 273.674 165.521C276.091 165.521 277.3 167.08 277.3 170.198C277.3 172.65 276.234 173.877 274.104 173.877H260.586C259.726 173.877 259.042 174.168 258.534 174.75C258.018 175.332 257.76 176.08 257.76 176.995V181.485C257.76 182.732 258.313 183.355 259.419 183.355H270.602C271.257 183.355 271.761 183.418 272.113 183.542C272.458 183.667 272.773 184.029 273.06 184.628C273.346 185.235 273.49 186.224 273.49 187.596C273.49 188.968 273.256 189.882 272.789 190.34C272.314 190.797 271.544 191.026 270.479 191.026H260.463C259.439 191.026 258.734 191.283 258.349 191.799C257.956 192.323 257.76 193.125 257.76 194.206V197.262C257.76 199.049 258.599 199.943 260.279 199.943H275.579C276.316 199.943 276.972 200.159 277.545 200.592C278.119 201.032 278.406 201.988 278.406 203.46C278.406 204.94 278.057 206.262 277.361 207.426C276.665 208.59 275.845 209.172 274.903 209.172H236.991ZM288.852 209.172C287.705 209.172 286.73 208.786 285.927 208.012C285.132 207.247 284.62 205.979 284.39 204.208C284.169 202.446 284.059 197.145 284.059 188.307C284.059 179.477 284.202 173.71 284.489 171.008C284.817 167.516 286.271 165.728 288.852 165.645C291.801 165.562 304.029 165.521 325.535 165.521C327.952 165.521 329.161 167.08 329.161 170.198C329.161 172.65 328.095 173.877 325.965 173.877H312.447C311.587 173.877 310.899 174.168 310.382 174.75C309.874 175.332 309.62 176.08 309.62 176.995V181.485C309.62 182.732 310.174 183.355 311.28 183.355H322.463C323.118 183.355 323.618 183.418 323.962 183.542C324.314 183.667 324.634 184.029 324.921 184.628C325.207 185.235 325.351 186.224 325.351 187.596C325.351 188.968 325.113 189.882 324.638 190.34C324.171 190.797 323.405 191.026 322.34 191.026H312.324C311.3 191.026 310.591 191.283 310.198 191.799C309.813 192.323 309.62 193.125 309.62 194.206V197.262C309.62 199.049 310.46 199.943 312.14 199.943H327.44C328.177 199.943 328.833 200.159 329.406 200.592C329.98 201.032 330.267 201.988 330.267 203.46C330.267 204.94 329.918 206.262 329.222 207.426C328.526 208.59 327.706 209.172 326.764 209.172H288.852Z" fill="#A67B5B"/>
</g>
</g>
<g clip-path="url(#clip6_1_540)">
<g clip-path="url(#clip7_1_540)">
<path d="M84.3506 221.444V229.933C84.3506 230.255 84.3106 230.546 84.2308 230.805C84.149 231.064 84.0419 231.291 83.9095 231.486C83.7771 231.68 83.6223 231.846 83.4451 231.984C83.2698 232.123 83.0858 232.235 82.8931 232.322C82.7003 232.407 82.5056 232.471 82.3089 232.512C82.1122 232.554 81.9253 232.574 81.7481 232.574H78.4037C78.0863 232.574 77.801 232.533 77.5479 232.45C77.2967 232.369 77.0747 232.259 76.8819 232.121C76.6891 231.984 76.5256 231.826 76.3912 231.646C76.2549 231.469 76.1439 231.282 76.0582 231.086C75.9726 230.891 75.9093 230.693 75.8684 230.493C75.8294 230.294 75.81 230.107 75.81 229.933V227.387C75.81 226.903 75.8966 226.494 76.0699 226.16C76.2432 225.824 76.4594 225.551 76.7184 225.342C76.9773 225.132 77.2587 224.981 77.5625 224.888C77.8663 224.797 78.1467 224.752 78.4037 224.752H81.7481V226.634H78.4183C78.171 226.634 77.9831 226.697 77.8546 226.824C77.7261 226.952 77.6618 227.14 77.6618 227.387V229.918C77.6618 230.173 77.7251 230.366 77.8516 230.496C77.9782 230.627 78.1622 230.692 78.4037 230.692H81.7481C82.0012 230.692 82.1891 230.627 82.3118 230.496C82.4364 230.366 82.4987 230.178 82.4987 229.933V221.444H84.3506ZM94.5064 227.387V229.933C94.5064 230.255 94.4655 230.546 94.3837 230.805C94.3039 231.064 94.1968 231.291 94.0624 231.486C93.93 231.68 93.7762 231.846 93.6009 231.984C93.4237 232.123 93.2387 232.235 93.046 232.322C92.8551 232.407 92.6604 232.471 92.4618 232.512C92.2651 232.554 92.0792 232.574 91.9039 232.574H88.5595C88.3025 232.574 88.0211 232.529 87.7154 232.438C87.4116 232.345 87.1302 232.194 86.8713 231.984C86.6123 231.775 86.3961 231.502 86.2228 231.166C86.0495 230.83 85.9629 230.419 85.9629 229.933V227.387C85.9629 226.903 86.0495 226.494 86.2228 226.16C86.3961 225.824 86.6123 225.551 86.8713 225.342C87.1302 225.132 87.4116 224.981 87.7154 224.888C88.0211 224.797 88.3025 224.752 88.5595 224.752H91.9039C92.379 224.752 92.7831 224.839 93.1161 225.012C93.4471 225.186 93.7148 225.405 93.9193 225.668C94.1238 225.93 94.2727 226.216 94.3662 226.524C94.4597 226.833 94.5064 227.12 94.5064 227.387ZM92.6516 229.933V227.399C92.6516 227.14 92.5874 226.947 92.4589 226.821C92.3304 226.696 92.1454 226.634 91.9039 226.634H88.5712C88.3239 226.634 88.137 226.697 88.0104 226.824C87.8819 226.952 87.8176 227.14 87.8176 227.387V229.933C87.8176 230.178 87.8819 230.366 88.0104 230.496C88.137 230.627 88.3239 230.692 88.5712 230.692H91.9039C92.1551 230.692 92.342 230.627 92.4647 230.496C92.5893 230.366 92.6516 230.178 92.6516 229.933ZM104.624 228.232V232.574H102.77V228.232C102.77 227.987 102.728 227.766 102.644 227.571C102.562 227.375 102.449 227.207 102.305 227.067C102.163 226.926 101.995 226.819 101.803 226.744C101.61 226.67 101.403 226.634 101.181 226.634H97.9355V232.574H96.0807V225.685C96.0807 225.555 96.1041 225.432 96.1508 225.318C96.1995 225.205 96.2667 225.106 96.3524 225.021C96.4381 224.938 96.5374 224.872 96.6503 224.823C96.7652 224.775 96.8869 224.752 97.0154 224.752H101.192C101.426 224.752 101.672 224.778 101.931 224.832C102.19 224.885 102.447 224.97 102.702 225.087C102.955 225.205 103.198 225.355 103.43 225.537C103.659 225.717 103.864 225.936 104.043 226.195C104.22 226.454 104.361 226.752 104.467 227.087C104.572 227.425 104.624 227.807 104.624 228.232ZM107.682 222.632L107.39 226.278H106.207L105.936 222.632H107.682ZM116.232 224.752V226.634H112.993V232.574H111.117V226.634H108.708V224.752H111.117V222.196H112.993V224.752H116.232ZM130.541 221.444V229.933C130.541 230.255 130.501 230.546 130.421 230.805C130.34 231.064 130.232 231.291 130.1 231.486C129.968 231.68 129.813 231.846 129.636 231.984C129.46 232.123 129.276 232.235 129.084 232.322C128.891 232.407 128.696 232.471 128.499 232.512C128.303 232.554 128.116 232.574 127.939 232.574H124.594C124.277 232.574 123.991 232.533 123.738 232.45C123.487 232.369 123.265 232.259 123.072 232.121C122.88 231.984 122.715 231.826 122.579 231.646C122.444 231.469 122.334 231.282 122.249 231.086C122.163 230.891 122.1 230.693 122.059 230.493C122.018 230.294 121.998 230.107 121.998 229.933V227.387C121.998 226.903 122.085 226.494 122.26 226.16C122.434 225.824 122.65 225.551 122.909 225.342C123.168 225.132 123.449 224.981 123.753 224.888C124.057 224.797 124.337 224.752 124.594 224.752H127.939V226.634H124.609C124.361 226.634 124.174 226.697 124.045 226.824C123.917 226.952 123.852 227.14 123.852 227.387V229.918C123.852 230.173 123.916 230.366 124.042 230.496C124.169 230.627 124.353 230.692 124.594 230.692H127.939C128.192 230.692 128.38 230.627 128.502 230.496C128.627 230.366 128.689 230.178 128.689 229.933V221.444H130.541ZM139.055 224.752V226.634H134.884C134.631 226.634 134.441 226.697 134.315 226.824C134.186 226.952 134.122 227.14 134.122 227.387V232.574H132.267V227.387C132.267 227.063 132.307 226.773 132.387 226.518C132.469 226.261 132.577 226.035 132.711 225.84C132.848 225.644 133.003 225.478 133.179 225.342C133.356 225.203 133.541 225.091 133.734 225.004C133.924 224.917 134.119 224.853 134.318 224.814C134.514 224.772 134.698 224.752 134.87 224.752H139.055ZM142.157 221.444V223.145H140.303V221.444H142.157ZM142.157 224.752V232.574H140.303V224.752H142.157ZM152.474 228.232V232.574H150.622V228.232C150.622 227.987 150.58 227.766 150.496 227.571C150.413 227.375 150.3 227.207 150.158 227.067C150.015 226.926 149.848 226.819 149.655 226.744C149.462 226.67 149.254 226.634 149.03 226.634H145.785V232.574H143.933V225.685C143.933 225.555 143.957 225.432 144.003 225.318C144.05 225.205 144.116 225.106 144.202 225.021C144.288 224.938 144.388 224.872 144.503 224.823C144.616 224.775 144.736 224.752 144.865 224.752H149.045C149.278 224.752 149.525 224.778 149.784 224.832C150.043 224.885 150.299 224.97 150.552 225.087C150.807 225.205 151.049 225.355 151.279 225.537C151.511 225.717 151.715 225.936 151.893 226.195C152.072 226.454 152.214 226.752 152.319 227.087C152.422 227.425 152.474 227.807 152.474 228.232ZM158.792 228.306L163.155 232.574H160.483L156.744 228.913C156.536 228.72 156.438 228.479 156.452 228.19C156.462 228.054 156.497 227.926 156.557 227.808C156.616 227.691 156.697 227.591 156.802 227.508L160.191 224.737H163.155L158.792 228.306ZM155.982 221.444V232.574H154.127V221.444H155.982ZM176.41 230.692V232.574H171.383C171.126 232.574 170.846 232.529 170.542 232.438C170.238 232.345 169.957 232.194 169.698 231.984C169.439 231.775 169.223 231.502 169.05 231.166C168.874 230.83 168.787 230.419 168.787 229.933V227.387C168.787 227.207 168.807 227.018 168.848 226.821C168.889 226.623 168.952 226.426 169.038 226.231C169.124 226.035 169.234 225.848 169.368 225.671C169.504 225.493 169.669 225.336 169.862 225.199C170.054 225.065 170.276 224.956 170.528 224.873C170.781 224.792 171.066 224.752 171.383 224.752H176.41V226.634H171.383C171.142 226.634 170.958 226.696 170.831 226.821C170.705 226.947 170.642 227.14 170.642 227.399V229.933C170.642 230.178 170.706 230.366 170.834 230.496C170.963 230.627 171.151 230.692 171.398 230.692H176.41ZM186.274 227.387V229.933C186.274 230.255 186.233 230.546 186.151 230.805C186.071 231.064 185.964 231.291 185.83 231.486C185.698 231.68 185.544 231.846 185.369 231.984C185.191 232.123 185.006 232.235 184.814 232.322C184.621 232.407 184.426 232.471 184.229 232.512C184.033 232.554 183.846 232.574 183.669 232.574H180.324C180.069 232.574 179.789 232.529 179.483 232.438C179.179 232.345 178.898 232.194 178.639 231.984C178.38 231.775 178.164 231.502 177.99 231.166C177.817 230.83 177.73 230.419 177.73 229.933V227.387C177.73 226.903 177.817 226.494 177.99 226.16C178.164 225.824 178.38 225.551 178.639 225.342C178.898 225.132 179.179 224.981 179.483 224.888C179.789 224.797 180.069 224.752 180.324 224.752H183.669C184.146 224.752 184.55 224.839 184.881 225.012C185.214 225.186 185.482 225.405 185.687 225.668C185.891 225.93 186.04 226.216 186.134 226.524C186.227 226.833 186.274 227.12 186.274 227.387ZM184.419 229.933V227.399C184.419 227.14 184.355 226.947 184.226 226.821C184.098 226.696 183.912 226.634 183.669 226.634H180.339C180.091 226.634 179.904 226.697 179.775 226.824C179.648 226.952 179.585 227.14 179.585 227.387V229.933C179.585 230.178 179.648 230.366 179.775 230.496C179.904 230.627 180.091 230.692 180.339 230.692H183.669C183.922 230.692 184.11 230.627 184.232 230.496C184.357 230.366 184.419 230.178 184.419 229.933ZM194.671 224.752V226.634H190.48V224.752H194.671ZM194.671 221.358V223.24H190.495C190.241 223.24 190.051 223.303 189.922 223.43C189.794 223.558 189.729 223.745 189.729 223.99V232.574H187.878V223.99C187.878 223.668 187.917 223.379 187.997 223.124C188.079 222.867 188.187 222.641 188.321 222.445C188.458 222.25 188.614 222.084 188.789 221.947C188.964 221.809 189.148 221.696 189.341 221.61C189.534 221.523 189.727 221.459 189.922 221.42C190.117 221.378 190.303 221.358 190.48 221.358H194.671ZM202.71 224.752V226.634H198.515V224.752H202.71ZM202.71 221.358V223.24H198.53C198.277 223.24 198.087 223.303 197.96 223.43C197.832 223.558 197.768 223.745 197.768 223.99V232.574H195.913V223.99C195.913 223.668 195.953 223.379 196.033 223.124C196.114 222.867 196.222 222.641 196.357 222.445C196.493 222.25 196.649 222.084 196.824 221.947C197.001 221.809 197.186 221.696 197.379 221.61C197.57 221.523 197.764 221.459 197.96 221.42C198.155 221.378 198.34 221.358 198.515 221.358H202.71ZM212.185 227.342C212.185 227.603 212.14 227.884 212.051 228.184C211.959 228.487 211.812 228.766 211.61 229.023C211.409 229.282 211.145 229.498 210.818 229.672C210.493 229.846 210.097 229.933 209.632 229.933H206.288V228.146H209.632C209.883 228.146 210.078 228.068 210.216 227.912C210.355 227.753 210.424 227.559 210.424 227.328C210.424 227.081 210.347 226.888 210.193 226.75C210.037 226.609 209.85 226.539 209.632 226.539H206.288C206.035 226.539 205.84 226.617 205.704 226.773C205.565 226.931 205.496 227.126 205.496 227.357V229.984C205.496 230.235 205.573 230.43 205.727 230.57C205.883 230.711 206.074 230.781 206.302 230.781H209.632V232.574H206.288C206.031 232.574 205.753 232.529 205.455 232.438C205.159 232.345 204.884 232.196 204.629 231.99C204.376 231.787 204.163 231.519 203.992 231.187C203.821 230.857 203.735 230.456 203.735 229.984V227.342C203.735 227.082 203.78 226.8 203.869 226.498C203.961 226.197 204.107 225.918 204.307 225.659C204.51 225.402 204.774 225.186 205.099 225.012C205.426 224.839 205.822 224.752 206.288 224.752H209.632C209.889 224.752 210.166 224.797 210.462 224.888C210.76 224.981 211.035 225.129 211.288 225.333C211.543 225.538 211.757 225.806 211.928 226.136C212.099 226.468 212.185 226.87 212.185 227.342ZM221.724 227.342C221.724 227.603 221.68 227.884 221.59 228.184C221.499 228.487 221.353 228.766 221.152 229.023C220.949 229.282 220.686 229.498 220.36 229.672C220.033 229.846 219.637 229.933 219.172 229.933H215.827V228.146H219.172C219.425 228.146 219.619 228.068 219.756 227.912C219.894 227.753 219.963 227.559 219.963 227.328C219.963 227.081 219.886 226.888 219.732 226.75C219.579 226.609 219.392 226.539 219.172 226.539H215.827C215.576 226.539 215.381 226.617 215.243 226.773C215.105 226.931 215.036 227.126 215.036 227.357V229.984C215.036 230.235 215.114 230.43 215.269 230.57C215.423 230.711 215.614 230.781 215.842 230.781H219.172V232.574H215.827C215.57 232.574 215.294 232.529 214.998 232.438C214.7 232.345 214.424 232.196 214.171 231.99C213.916 231.787 213.703 231.519 213.531 231.187C213.36 230.857 213.274 230.456 213.274 229.984V227.342C213.274 227.082 213.32 226.8 213.412 226.498C213.501 226.197 213.647 225.918 213.85 225.659C214.05 225.402 214.314 225.186 214.641 225.012C214.967 224.839 215.362 224.752 215.827 224.752H219.172C219.429 224.752 219.706 224.797 220.004 224.888C220.3 224.981 220.576 225.129 220.831 225.333C221.084 225.538 221.296 225.806 221.467 226.136C221.639 226.468 221.724 226.87 221.724 227.342ZM235.607 227.342V229.984C235.607 230.244 235.563 230.525 235.473 230.825C235.381 231.128 235.235 231.408 235.035 231.667C234.832 231.924 234.568 232.14 234.243 232.313C233.916 232.487 233.52 232.574 233.054 232.574H229.71C229.453 232.574 229.177 232.529 228.881 232.438C228.583 232.345 228.306 232.196 228.051 231.99C227.798 231.787 227.586 231.519 227.414 231.187C227.243 230.857 227.157 230.456 227.157 229.984C227.157 229.723 227.202 229.44 227.292 229.136C227.383 228.833 227.53 228.553 227.733 228.294C227.933 228.035 228.197 227.819 228.524 227.645C228.849 227.473 229.245 227.387 229.71 227.387H233.054V229.18H229.71C229.459 229.18 229.264 229.258 229.126 229.414C228.988 229.572 228.919 229.767 228.919 229.998C228.919 230.243 228.998 230.435 229.158 230.573C229.318 230.712 229.507 230.781 229.725 230.781H233.054C233.308 230.781 233.502 230.703 233.639 230.547C233.777 230.393 233.846 230.2 233.846 229.969V227.342C233.846 227.095 233.771 226.9 233.621 226.755C233.471 226.611 233.282 226.539 233.054 226.539H228.983V224.752H233.054C233.311 224.752 233.589 224.797 233.887 224.888C234.183 224.981 234.458 225.129 234.714 225.333C234.967 225.538 235.179 225.806 235.35 226.136C235.522 226.468 235.607 226.87 235.607 227.342ZM240.579 230.692V232.574H239.749C239.484 232.574 239.201 232.529 238.899 232.438C238.597 232.345 238.315 232.194 238.052 231.984C237.791 231.775 237.575 231.502 237.404 231.166C237.232 230.83 237.147 230.419 237.147 229.933V221.444H239.001V229.933C239.001 230.164 239.072 230.349 239.215 230.487C239.359 230.624 239.537 230.692 239.749 230.692H240.579ZM250.153 227.387V229.933C250.153 230.255 250.113 230.546 250.033 230.805C249.952 231.064 249.845 231.291 249.712 231.486C249.578 231.68 249.423 231.846 249.248 231.984C249.072 232.123 248.888 232.235 248.696 232.322C248.503 232.407 248.308 232.471 248.112 232.512C247.913 232.554 247.726 232.574 247.551 232.574H244.206C243.949 232.574 243.669 232.529 243.365 232.438C243.061 232.345 242.78 232.194 242.521 231.984C242.262 231.775 242.045 231.502 241.87 231.166C241.696 230.83 241.61 230.419 241.61 229.933V227.387C241.61 226.903 241.696 226.494 241.87 226.16C242.045 225.824 242.262 225.551 242.521 225.342C242.78 225.132 243.061 224.981 243.365 224.888C243.669 224.797 243.949 224.752 244.206 224.752H247.551C248.026 224.752 248.43 224.839 248.763 225.012C249.096 225.186 249.365 225.405 249.569 225.668C249.773 225.93 249.922 226.216 250.016 226.524C250.107 226.833 250.153 227.12 250.153 227.387ZM248.298 229.933V227.399C248.298 227.14 248.234 226.947 248.106 226.821C247.979 226.696 247.794 226.634 247.551 226.634H244.221C243.974 226.634 243.786 226.697 243.657 226.824C243.529 226.952 243.464 227.14 243.464 227.387V229.933C243.464 230.178 243.529 230.366 243.657 230.496C243.786 230.627 243.974 230.692 244.221 230.692H247.551C247.802 230.692 247.99 230.627 248.114 230.496C248.237 230.366 248.298 230.178 248.298 229.933ZM260.271 228.232V232.574H258.416V228.232C258.416 227.987 258.375 227.766 258.294 227.571C258.21 227.375 258.097 227.207 257.955 227.067C257.813 226.926 257.645 226.819 257.452 226.744C257.26 226.67 257.051 226.634 256.827 226.634H253.582V232.574H251.728V225.685C251.728 225.555 251.752 225.432 251.801 225.318C251.847 225.205 251.913 225.106 251.999 225.021C252.085 224.938 252.185 224.872 252.3 224.823C252.413 224.775 252.534 224.752 252.662 224.752H256.842C257.076 224.752 257.322 224.778 257.581 224.832C257.84 224.885 258.096 224.97 258.349 225.087C258.604 225.205 258.847 225.355 259.076 225.537C259.308 225.717 259.513 225.936 259.69 226.195C259.869 226.454 260.011 226.752 260.116 227.087C260.219 227.425 260.271 227.807 260.271 228.232ZM270.19 227.342C270.19 227.603 270.145 227.884 270.056 228.184C269.964 228.487 269.817 228.766 269.615 229.023C269.414 229.282 269.15 229.498 268.823 229.672C268.498 229.846 268.103 229.933 267.637 229.933H264.293V228.146H267.637C267.889 228.146 268.083 228.068 268.222 227.912C268.36 227.753 268.429 227.559 268.429 227.328C268.429 227.081 268.352 226.888 268.198 226.75C268.042 226.609 267.856 226.539 267.637 226.539H264.293C264.042 226.539 263.847 226.617 263.709 226.773C263.571 226.931 263.502 227.126 263.502 227.357V229.984C263.502 230.235 263.578 230.43 263.732 230.57C263.888 230.711 264.08 230.781 264.308 230.781H267.637V232.574H264.293C264.036 232.574 263.76 232.529 263.464 232.438C263.166 232.345 262.889 232.196 262.634 231.99C262.381 231.787 262.169 231.519 261.997 231.187C261.826 230.857 261.74 230.456 261.74 229.984V227.342C261.74 227.082 261.785 226.8 261.875 226.498C261.966 226.197 262.112 225.918 262.313 225.659C262.515 225.402 262.779 225.186 263.104 225.012C263.431 224.839 263.828 224.752 264.293 224.752H267.637C267.894 224.752 268.171 224.797 268.467 224.888C268.765 224.981 269.041 225.129 269.296 225.333C269.55 225.538 269.762 225.806 269.933 226.136C270.105 226.468 270.19 226.87 270.19 227.342Z" fill="#745A40"/>
</g>
</g>
</g>
</g>
<g clip-path="url(#clip8_1_540)">
<g clip-path="url(#clip9_1_540)">
<path d="M227.448 39.0663L218.735 21.2336C218.326 20.3976 217.486 19.8686 216.567 19.8686H213.633L210.018 12.5307C209.608 11.6984 208.77 11.1726 207.853 11.1726H138.147C137.23 11.1726 136.392 11.6984 135.982 12.5307L132.367 19.8686H129.433C128.514 19.8686 127.674 20.3976 127.265 21.2336L118.552 39.0663C118.18 39.8276 118.222 40.7301 118.663 41.4523C119.105 42.1748 119.883 42.6137 120.72 42.6137H129.744L132.179 60.5447H130.158C129.673 60.5447 129.211 60.7558 128.889 61.1248C128.568 61.4932 128.418 61.9839 128.476 62.4728L135.936 124.372C136.04 125.235 136.762 125.883 137.618 125.883H141.048L144.462 151.027C144.627 152.243 145.65 153.148 146.859 153.148H199.139C200.349 153.148 201.372 152.243 201.537 151.027L204.951 125.883H208.381C209.237 125.883 209.959 125.235 210.063 124.372L217.523 62.4728C217.582 61.9839 217.432 61.4932 217.11 61.1248C216.788 60.7558 216.326 60.5447 215.841 60.5447H213.82L216.255 42.6137H225.279C226.116 42.6137 226.895 42.1748 227.336 41.4523C227.778 40.7298 227.82 39.8276 227.448 39.0663ZM197.03 148.235H148.97L145.935 125.883H200.065L197.03 148.235ZM208.935 60.5444H137.065L134.631 42.6134H211.369L208.935 60.5444ZM214.155 37.701C214.151 37.701 214.149 37.7004 214.146 37.7004H131.854C131.851 37.7004 131.848 37.701 131.845 37.701H124.622L130.935 24.7811H177.356C178.693 24.7811 179.777 23.6812 179.777 22.3246C179.777 20.9679 178.693 19.8683 177.356 19.8683H137.779L139.643 16.0854H206.357L208.221 19.8683H203.497C202.16 19.8683 201.076 20.9682 201.076 22.3246C201.076 23.681 202.16 24.7811 203.497 24.7811H215.065L221.378 37.701H214.155Z" fill="#745A40"/>
</g>
</g>
<path d="M330.273 147.584H238.622V151.763H330.273V147.584Z" fill="#745A40"/>
<path d="M107.378 147.584H15.7273V151.763H107.378V147.584Z" fill="#745A40"/>
<path d="M330.273 139.228H238.622V143.406H330.273V139.228Z" fill="#745A40"/>
<path d="M107.378 139.228H15.7273V143.406H107.378V139.228Z" fill="#745A40"/>
</g>
</g>
<defs>
<clipPath id="clip0_1_540">
<rect width="314.546" height="221.402" fill="white" transform="translate(15.7273 11.1726)"/>
</clipPath>
<clipPath id="clip1_1_540">
<rect width="314.546" height="221.402" fill="white" transform="translate(15.7273 11.1726)"/>
</clipPath>
<clipPath id="clip2_1_540">
<rect width="314.546" height="68.488" fill="white" transform="translate(15.7273 164.086)"/>
</clipPath>
<clipPath id="clip3_1_540">
<rect width="314.546" height="68.488" fill="white" transform="translate(15.7273 164.086)"/>
</clipPath>
<clipPath id="clip4_1_540">
<rect width="314.546" height="46.3331" fill="white" transform="translate(15.7273 164.086)"/>
</clipPath>
<clipPath id="clip5_1_540">
<rect width="314.546" height="46.3331" fill="white" transform="translate(15.7273 164.086)"/>
</clipPath>
<clipPath id="clip6_1_540">
<rect width="194.389" height="11.2167" fill="white" transform="translate(75.8055 221.358)"/>
</clipPath>
<clipPath id="clip7_1_540">
<rect width="194.389" height="11.2167" fill="white" transform="translate(75.8055 221.358)"/>
</clipPath>
<clipPath id="clip8_1_540">
<rect width="131.244" height="141.976" fill="white" transform="translate(107.378 11.1726)"/>
</clipPath>
<clipPath id="clip9_1_540">
<rect width="109.4" height="141.976" fill="white" transform="translate(118.3 11.1726)"/>
</clipPath>
</defs>
</svg>
