<svg width="425" height="436" viewBox="0 0 425 436" fill="none" xmlns="http://www.w3.org/2000/svg">
<g clip-path="url(#clip0_10_353)">
<g clip-path="url(#clip1_10_353)">
<path d="M400.063 234.022H26.8087C24.7052 234.022 23 235.375 23 237.043C23 238.711 24.7052 240.064 26.8087 240.064H400.063C402.167 240.064 403.872 238.711 403.872 237.043C403.872 235.375 402.167 234.022 400.063 234.022Z" fill="#0085C3"/>
<g clip-path="url(#clip2_10_353)">
<g clip-path="url(#clip3_10_353)">
<g clip-path="url(#clip4_10_353)">
<g clip-path="url(#clip5_10_353)">
<path d="M58.756 322.872C52.1807 322.872 46.2444 321.427 40.9469 318.536C35.6371 315.658 31.4811 311.676 28.4788 306.589C25.4641 301.503 23.9567 295.765 23.9567 289.376C23.9567 282.987 25.4765 277.249 28.516 272.162C31.5555 267.076 35.7302 263.087 41.04 260.196C46.3374 257.318 52.2738 255.879 58.849 255.879C64.1837 255.879 69.0531 256.81 73.4573 258.67C77.8614 260.531 81.5833 263.23 84.6228 266.765L76.8069 274.116C72.0926 269.03 66.2927 266.486 59.4073 266.486C54.9411 266.486 50.9401 267.46 47.4043 269.408C43.8686 271.368 41.1082 274.085 39.1232 277.559C37.1383 281.033 36.1458 284.972 36.1458 289.376C36.1458 293.78 37.1383 297.719 39.1232 301.193C41.1082 304.666 43.8686 307.377 47.4043 309.325C50.9401 311.285 54.9411 312.265 59.4073 312.265C66.2927 312.265 72.0926 309.691 76.8069 304.542L84.6228 311.986C81.5833 315.522 77.849 318.22 73.42 320.081C68.9786 321.942 64.0906 322.872 58.756 322.872ZM125.284 322.872C118.647 322.872 112.661 321.427 107.326 318.536C101.991 315.658 97.8043 311.657 94.7648 306.533C91.7253 301.422 90.2056 295.703 90.2056 289.376C90.2056 283.049 91.7253 277.323 94.7648 272.199C97.8043 267.088 101.991 263.087 107.326 260.196C112.661 257.318 118.647 255.879 125.284 255.879C131.921 255.879 137.907 257.318 143.242 260.196C148.577 263.087 152.764 267.076 155.803 272.162C158.843 277.249 160.362 282.987 160.362 289.376C160.362 295.765 158.843 301.503 155.803 306.589C152.764 311.676 148.577 315.658 143.242 318.536C137.907 321.427 131.921 322.872 125.284 322.872ZM125.284 312.265C129.626 312.265 133.534 311.285 137.008 309.325C140.481 307.377 143.211 304.648 145.196 301.137C147.181 297.638 148.173 293.718 148.173 289.376C148.173 285.034 147.181 281.107 145.196 277.596C143.211 274.098 140.481 271.368 137.008 269.408C133.534 267.46 129.626 266.486 125.284 266.486C120.942 266.486 117.034 267.46 113.56 269.408C110.086 271.368 107.357 274.098 105.372 277.596C103.387 281.107 102.395 285.034 102.395 289.376C102.395 293.718 103.387 297.638 105.372 301.137C107.357 304.648 110.086 307.377 113.56 309.325C117.034 311.285 120.942 312.265 125.284 312.265ZM220.749 266.952H185.299V286.77H216.748V297.005H185.299V321.942H173.203V256.81H220.749V266.952ZM280.001 266.952H244.55V286.77H276V297.005H244.55V321.942H232.454V256.81H280.001V266.952ZM303.821 311.8H340.574V321.942H291.725V256.81H339.271V266.952H303.821V283.886H335.27V293.842H303.821V311.8ZM366.162 311.8H402.915V321.942H354.066V256.81H401.612V266.952H366.162V283.886H397.611V293.842H366.162V311.8Z" fill="#0085C3"/>
</g>
</g>
<g clip-path="url(#clip6_10_353)">
<g clip-path="url(#clip7_10_353)">
<path d="M99.6226 353.054H99.0802C98.2847 353.054 97.6917 352.936 97.3011 352.7C96.9082 352.466 96.649 352.146 96.5237 351.741C96.3959 351.339 96.332 350.878 96.332 350.36V347.63C96.332 347.172 96.3959 346.742 96.5237 346.339C96.649 345.934 96.9082 345.601 97.3011 345.341C97.6917 345.083 98.2847 344.954 99.0802 344.954H99.6407C100.521 344.954 101.32 344.978 102.038 345.026C102.754 345.075 103.245 345.117 103.51 345.153V341.591H106.855V353.054H104.233L103.528 352.692C103.022 352.777 102.477 352.858 101.894 352.935C101.308 353.014 100.551 353.054 99.6226 353.054ZM100.545 350.776H102.949C103.203 350.776 103.359 350.746 103.419 350.685C103.48 350.625 103.51 350.475 103.51 350.233V347.359C103.209 347.335 102.853 347.307 102.443 347.276C102.033 347.247 101.581 347.232 101.087 347.232H100.545C99.9662 347.232 99.6769 347.473 99.6769 347.955V350.053C99.6769 350.294 99.7432 350.475 99.8758 350.595C100.008 350.716 100.231 350.776 100.545 350.776ZM116.636 353.054H111.61C110.814 353.054 110.218 352.939 109.82 352.71C109.422 352.481 109.159 352.164 109.032 351.759C108.906 351.357 108.844 350.89 108.844 350.36V347.63C108.844 347.124 108.91 346.668 109.042 346.263C109.175 345.86 109.437 345.541 109.827 345.305C110.22 345.071 110.814 344.954 111.61 344.954H116.636C117.432 344.954 118.025 345.071 118.415 345.305C118.808 345.541 119.067 345.86 119.193 346.263C119.32 346.668 119.384 347.124 119.384 347.63V350.36C119.384 350.89 119.32 351.357 119.193 351.759C119.067 352.164 118.808 352.481 118.415 352.71C118.025 352.939 117.432 353.054 116.636 353.054ZM113.056 350.776H115.208C115.786 350.776 116.07 350.535 116.058 350.053V347.955C116.058 347.714 115.994 347.533 115.866 347.413C115.741 347.292 115.521 347.232 115.208 347.232H113.074C112.761 347.232 112.538 347.292 112.405 347.413C112.273 347.533 112.206 347.714 112.206 347.955V350.053C112.194 350.535 112.478 350.776 113.056 350.776ZM124.718 353.054H121.373V344.954H123.995L124.718 345.316C125.222 345.219 125.833 345.135 126.551 345.063C127.27 344.99 127.942 344.954 128.569 344.954H129.473C130.076 344.954 130.54 345.038 130.865 345.207C131.188 345.376 131.42 345.587 131.56 345.84C131.699 346.093 131.784 346.35 131.813 346.61C131.844 346.868 131.86 347.088 131.86 347.268V353.054H128.547V347.955C128.547 347.473 128.259 347.232 127.683 347.232H125.26C125.031 347.232 124.883 347.253 124.816 347.294C124.751 347.337 124.718 347.449 124.718 347.63V353.054ZM135.201 344.375C135.02 344.375 134.849 344.263 134.687 344.039C134.524 343.817 134.375 343.532 134.243 343.182C134.11 342.833 133.993 342.459 133.892 342.061C133.788 341.663 133.71 341.29 133.657 340.94C133.601 340.591 133.574 340.307 133.574 340.09C133.574 339.608 133.694 339.265 133.935 339.06C134.176 338.855 134.598 338.753 135.201 338.753C135.84 338.753 136.277 338.855 136.514 339.06C136.747 339.265 136.864 339.608 136.864 340.09C136.864 340.295 136.838 340.576 136.785 340.933C136.729 341.287 136.651 341.66 136.55 342.05C136.446 342.443 136.322 342.817 136.177 343.171C136.033 343.528 135.88 343.817 135.718 344.039C135.554 344.263 135.382 344.375 135.201 344.375ZM142.939 353.054H141.818C140.902 353.054 140.275 352.861 139.938 352.475C139.6 352.09 139.432 351.511 139.432 350.74V347.232H137.949V344.954H138.708C138.913 344.954 139.079 344.914 139.204 344.835C139.332 344.758 139.414 344.617 139.45 344.412L139.793 342.477H142.758V344.954H145.778V347.232H142.758V350.035C142.758 350.336 142.831 350.535 142.975 350.631C143.12 350.728 143.337 350.776 143.626 350.776H145.434L145.796 352.873C145.543 352.909 145.157 352.948 144.639 352.989C144.12 353.032 143.554 353.054 142.939 353.054ZM154.33 353.054H153.787C152.992 353.054 152.398 352.936 152.005 352.7C151.614 352.466 151.355 352.146 151.227 351.741C151.102 351.339 151.039 350.878 151.039 350.36V347.63C151.039 347.172 151.102 346.742 151.227 346.339C151.355 345.934 151.614 345.601 152.005 345.341C152.398 345.083 152.992 344.954 153.787 344.954H154.348C155.228 344.954 156.026 344.978 156.742 345.026C157.46 345.075 157.952 345.117 158.217 345.153V341.591H161.562V353.054H158.94L158.235 352.692C157.729 352.777 157.183 352.858 156.597 352.935C156.014 353.014 155.258 353.054 154.33 353.054ZM155.252 350.776H157.657C157.91 350.776 158.066 350.746 158.127 350.685C158.187 350.625 158.217 350.475 158.217 350.233V347.359C157.916 347.335 157.56 347.307 157.15 347.276C156.74 347.247 156.288 347.232 155.794 347.232H155.252C154.673 347.232 154.384 347.473 154.384 347.955V350.053C154.384 350.294 154.45 350.475 154.583 350.595C154.715 350.716 154.938 350.776 155.252 350.776ZM167.018 353.054H163.728V344.954H166.295L166.982 345.316C167.537 344.954 168.272 344.773 169.188 344.773C169.791 344.773 170.321 344.836 170.779 344.961C171.237 345.089 171.608 345.225 171.893 345.37C172.175 345.515 172.352 345.617 172.424 345.677L171.52 348.028C171.4 347.943 171.175 347.829 170.844 347.684C170.512 347.54 170.122 347.403 169.676 347.276C169.23 347.15 168.76 347.088 168.266 347.088H168.067C167.73 347.088 167.47 347.144 167.29 347.257C167.109 347.373 167.018 347.624 167.018 348.01V353.054ZM175.516 344.177C174.299 344.177 173.69 343.658 173.69 342.622C173.69 342.043 173.844 341.642 174.153 341.418C174.459 341.196 174.914 341.085 175.516 341.085C176.155 341.085 176.623 341.196 176.919 341.418C177.213 341.642 177.36 342.043 177.36 342.622C177.36 343.658 176.746 344.177 175.516 344.177ZM177.143 353.054H173.853V344.954H177.143V353.054ZM182.875 353.054H179.53V344.954H182.152L182.875 345.316C183.381 345.219 183.992 345.135 184.708 345.063C185.427 344.99 186.099 344.954 186.726 344.954H187.63C188.233 344.954 188.697 345.038 189.022 345.207C189.348 345.376 189.579 345.587 189.716 345.84C189.856 346.093 189.941 346.35 189.97 346.61C190.001 346.868 190.017 347.088 190.017 347.268V353.054H186.708V347.955C186.708 347.473 186.419 347.232 185.84 347.232H183.417C183.188 347.232 183.04 347.253 182.972 347.294C182.907 347.337 182.875 347.449 182.875 347.63V353.054ZM201.479 353.235C200.889 353.235 200.373 353.175 199.932 353.054C199.493 352.933 199.075 352.674 198.677 352.277C198.436 352.035 198.195 351.794 197.954 351.553C197.713 351.312 197.472 351.071 197.231 350.83C197.038 350.625 196.881 350.465 196.76 350.349C196.64 350.236 196.522 350.158 196.406 350.114C196.293 350.073 196.134 350.053 195.929 350.053C195.664 350.053 195.507 350.077 195.459 350.125C195.41 350.173 195.386 350.336 195.386 350.613V353.054H192.096V341.609H195.386V347.738H195.965C196.17 347.738 196.363 347.654 196.544 347.485C196.652 347.377 196.817 347.178 197.039 346.889C197.263 346.599 197.508 346.28 197.773 345.93C198.038 345.581 198.279 345.261 198.496 344.972H202.293L202.004 345.533C201.714 345.894 201.379 346.292 200.998 346.726C200.62 347.16 200.252 347.558 199.896 347.919C199.541 348.281 199.256 348.534 199.039 348.679C199.509 348.992 199.949 349.326 200.358 349.68C200.768 350.037 201.293 350.354 201.931 350.631C202.353 350.812 202.711 350.929 203.005 350.982C203.302 351.037 203.51 351.065 203.631 351.065L203.125 353.054C203.004 353.09 202.802 353.13 202.517 353.173C202.235 353.214 201.889 353.235 201.479 353.235ZM214.891 353.054H211.456C210.661 353.054 210.049 352.939 209.623 352.71C209.194 352.481 208.901 352.164 208.744 351.759C208.587 351.357 208.509 350.89 208.509 350.36V347.63C208.509 347.148 208.591 346.704 208.755 346.299C208.916 345.897 209.208 345.571 209.63 345.323C210.052 345.077 210.661 344.954 211.456 344.954H213.77C215.156 344.954 216.175 345.014 216.826 345.135C217.477 345.255 217.844 345.376 217.929 345.496L217.386 347.413C217.133 347.389 216.675 347.353 216.012 347.304C215.349 347.256 214.62 347.232 213.825 347.232H212.722C212.408 347.232 212.185 347.292 212.053 347.413C211.92 347.533 211.854 347.714 211.854 347.955V350.053C211.854 350.294 211.914 350.475 212.035 350.595C212.155 350.716 212.384 350.776 212.722 350.776H213.644C214.536 350.776 215.305 350.754 215.951 350.711C216.594 350.67 217.067 350.631 217.368 350.595L218.453 352.313C218.453 352.481 218.155 352.647 217.56 352.808C216.962 352.972 216.073 353.054 214.891 353.054ZM227.331 353.054H222.304C221.509 353.054 220.912 352.939 220.514 352.71C220.117 352.481 219.854 352.164 219.726 351.759C219.601 351.357 219.538 350.89 219.538 350.36V347.63C219.538 347.124 219.604 346.668 219.737 346.263C219.869 345.86 220.131 345.541 220.522 345.305C220.914 345.071 221.509 344.954 222.304 344.954H227.331C228.126 344.954 228.719 345.071 229.11 345.305C229.503 345.541 229.762 345.86 229.887 346.263C230.015 346.668 230.079 347.124 230.079 347.63V350.36C230.079 350.89 230.015 351.357 229.887 351.759C229.762 352.164 229.503 352.481 229.11 352.71C228.719 352.939 228.126 353.054 227.331 353.054ZM223.751 350.776H225.902C226.481 350.776 226.764 350.535 226.752 350.053V347.955C226.752 347.714 226.688 347.533 226.56 347.413C226.435 347.292 226.216 347.232 225.902 347.232H223.769C223.455 347.232 223.232 347.292 223.1 347.413C222.967 347.533 222.901 347.714 222.901 347.955V350.053C222.889 350.535 223.172 350.776 223.751 350.776ZM236.114 353.054H232.827V347.232H231.344V344.972H232.827V343.725C232.827 341.941 233.802 341.049 235.752 341.049H237C238.446 341.049 239.486 341.115 240.12 341.248C240.752 341.38 241.068 341.495 241.068 341.591L240.525 343.688C240.323 343.604 239.957 343.522 239.426 343.443C238.893 343.365 238.255 343.327 237.51 343.327H236.985C236.684 343.327 236.463 343.381 236.324 343.49C236.184 343.598 236.114 343.785 236.114 344.05V344.972H239.517V347.232H236.114V353.054ZM244.756 353.054H241.466V347.232H239.983V344.972H241.466V343.725C241.466 341.941 242.442 341.049 244.395 341.049H245.642C247.089 341.049 248.129 341.115 248.763 341.248C249.394 341.38 249.71 341.495 249.71 341.591L249.168 343.688C248.963 343.604 248.595 343.522 248.065 343.443C247.535 343.365 246.896 343.327 246.148 343.327H245.624C245.323 343.327 245.103 343.381 244.966 343.49C244.826 343.598 244.756 343.785 244.756 344.05V344.972H248.155V347.232H244.756V353.054ZM256.328 353.054H252.477C251.681 353.054 251.069 352.939 250.64 352.71C250.213 352.481 249.921 352.164 249.764 351.759C249.608 351.357 249.529 350.89 249.529 350.36V347.63C249.529 347.148 249.61 346.704 249.772 346.299C249.936 345.897 250.229 345.571 250.65 345.323C251.072 345.077 251.681 344.954 252.477 344.954H256.219C257.159 344.954 257.879 345.065 258.378 345.287C258.879 345.511 259.223 345.824 259.408 346.227C259.596 346.632 259.691 347.1 259.691 347.63V349.944H256.526C255.442 349.944 254.618 349.92 254.057 349.872C253.497 349.824 253.103 349.794 252.874 349.781V350.053C252.862 350.535 253.151 350.776 253.742 350.776H254.303C255.267 350.776 256.159 350.754 256.978 350.711C257.798 350.67 258.407 350.631 258.805 350.595L259.889 352.313C259.889 352.433 259.787 352.548 259.582 352.656C259.377 352.765 259.018 352.858 258.504 352.935C257.993 353.014 257.268 353.054 256.328 353.054ZM252.874 347.955V348.208H256.346V347.955C256.346 347.714 256.324 347.546 256.281 347.449C256.24 347.353 256.111 347.292 255.894 347.268C255.677 347.244 255.309 347.232 254.791 347.232H253.742C253.164 347.232 252.874 347.473 252.874 347.955ZM268.315 353.054H264.464C263.668 353.054 263.056 352.939 262.627 352.71C262.2 352.481 261.908 352.164 261.752 351.759C261.595 351.357 261.517 350.89 261.517 350.36V347.63C261.517 347.148 261.597 346.704 261.759 346.299C261.923 345.897 262.216 345.571 262.638 345.323C263.059 345.077 263.668 344.954 264.464 344.954H268.206C269.146 344.954 269.866 345.065 270.365 345.287C270.867 345.511 271.21 345.824 271.396 346.227C271.584 346.632 271.678 347.1 271.678 347.63V349.944H268.514C267.429 349.944 266.606 349.92 266.044 349.872C265.485 349.824 265.09 349.794 264.861 349.781V350.053C264.849 350.535 265.139 350.776 265.729 350.776H266.29C267.254 350.776 268.146 350.754 268.966 350.711C269.785 350.67 270.394 350.631 270.792 350.595L271.877 352.313C271.877 352.433 271.774 352.548 271.569 352.656C271.364 352.765 271.005 352.858 270.492 352.935C269.981 353.014 269.255 353.054 268.315 353.054ZM264.861 347.955V348.208H268.333V347.955C268.333 347.714 268.311 347.546 268.268 347.449C268.227 347.353 268.098 347.292 267.881 347.268C267.664 347.244 267.296 347.232 266.778 347.232H265.729C265.151 347.232 264.861 347.473 264.861 347.955ZM280.895 353.054H280.353C279.292 353.054 278.533 352.855 278.074 352.457C277.616 352.06 277.387 351.397 277.387 350.469C277.387 349.613 277.626 348.992 278.103 348.606C278.578 348.221 279.328 348.028 280.353 348.028H280.913C281.588 348.028 282.233 348.052 282.848 348.1C283.462 348.148 283.993 348.196 284.439 348.245V347.955C284.439 347.787 284.403 347.624 284.33 347.467C284.258 347.311 284.005 347.232 283.571 347.232H282.667C281.353 347.232 280.341 347.253 279.629 347.294C278.918 347.337 278.478 347.377 278.31 347.413L278.111 345.496C278.111 345.376 278.322 345.276 278.743 345.196C279.165 345.119 279.744 345.059 280.479 345.016C281.214 344.975 282.052 344.954 282.992 344.954H284.8C285.596 344.954 286.205 345.071 286.626 345.305C287.048 345.541 287.338 345.858 287.494 346.256C287.651 346.654 287.729 347.112 287.729 347.63V353.054H285.162L284.457 352.692C284.168 352.753 283.707 352.827 283.075 352.917C282.441 353.008 281.715 353.054 280.895 353.054ZM281.401 350.921H283.896C284.162 350.921 284.318 350.896 284.366 350.848C284.415 350.8 284.439 350.649 284.439 350.396V349.763H281.401C281.172 349.763 281.003 349.806 280.895 349.89C280.787 349.974 280.732 350.137 280.732 350.378C280.732 350.607 280.787 350.754 280.895 350.819C281.003 350.887 281.172 350.921 281.401 350.921ZM293.28 353.054H289.989V343.038L289.809 341.591H293.28V353.054ZM303.061 353.054H298.035C297.24 353.054 296.643 352.939 296.245 352.71C295.847 352.481 295.585 352.164 295.457 351.759C295.331 351.357 295.269 350.89 295.269 350.36V347.63C295.269 347.124 295.335 346.668 295.468 346.263C295.6 345.86 295.862 345.541 296.252 345.305C296.645 345.071 297.24 344.954 298.035 344.954H303.061C303.857 344.954 304.45 345.071 304.84 345.305C305.233 345.541 305.493 345.86 305.618 346.263C305.746 346.668 305.81 347.124 305.81 347.63V350.36C305.81 350.89 305.746 351.357 305.618 351.759C305.493 352.164 305.233 352.481 304.84 352.71C304.45 352.939 303.857 353.054 303.061 353.054ZM299.481 350.776H301.633C302.212 350.776 302.495 350.535 302.483 350.053V347.955C302.483 347.714 302.419 347.533 302.291 347.413C302.166 347.292 301.946 347.232 301.633 347.232H299.5C299.186 347.232 298.963 347.292 298.831 347.413C298.698 347.533 298.632 347.714 298.632 347.955V350.053C298.62 350.535 298.903 350.776 299.481 350.776ZM311.14 353.054H307.795V344.954H310.416L311.14 345.316C311.646 345.219 312.258 345.135 312.977 345.063C313.693 344.99 314.364 344.954 314.991 344.954H315.895C316.497 344.954 316.961 345.038 317.287 345.207C317.612 345.376 317.845 345.587 317.985 345.84C318.122 346.093 318.207 346.35 318.238 346.61C318.267 346.868 318.281 347.088 318.281 347.268V353.054H314.973V347.955C314.973 347.473 314.683 347.232 314.105 347.232H311.682C311.453 347.232 311.306 347.253 311.241 347.294C311.173 347.337 311.14 347.449 311.14 347.63V353.054ZM326.978 353.054H323.127C322.331 353.054 321.72 352.939 321.293 352.71C320.864 352.481 320.571 352.164 320.415 351.759C320.258 351.357 320.18 350.89 320.18 350.36V347.63C320.18 347.148 320.262 346.704 320.426 346.299C320.587 345.897 320.879 345.571 321.301 345.323C321.723 345.077 322.331 344.954 323.127 344.954H326.869C327.81 344.954 328.53 345.065 329.032 345.287C329.531 345.511 329.874 345.824 330.062 346.227C330.248 346.632 330.341 347.1 330.341 347.63V349.944H327.177C326.092 349.944 325.27 349.92 324.711 349.872C324.149 349.824 323.754 349.794 323.525 349.781V350.053C323.513 350.535 323.802 350.776 324.392 350.776H324.953C325.917 350.776 326.809 350.754 327.629 350.711C328.448 350.67 329.057 350.631 329.455 350.595L330.54 352.313C330.54 352.433 330.437 352.548 330.232 352.656C330.027 352.765 329.669 352.858 329.158 352.935C328.645 353.014 327.918 353.054 326.978 353.054ZM323.525 347.955V348.208H326.996V347.955C326.996 347.714 326.975 347.546 326.934 347.449C326.891 347.353 326.761 347.292 326.544 347.268C326.327 347.244 325.959 347.232 325.441 347.232H324.392C323.814 347.232 323.525 347.473 323.525 347.955Z" fill="#C35353"/>
</g>
</g>
</g>
</g>
<g clip-path="url(#clip8_10_353)">
<g clip-path="url(#clip9_10_353)">
<path d="M265.836 110.023L257.45 93.1124C257.057 92.3195 256.249 91.8179 255.364 91.8179H252.54L249.061 84.8594C248.667 84.0701 247.86 83.5715 246.978 83.5715H179.894C179.011 83.5715 178.205 84.0701 177.81 84.8594L174.331 91.8179H171.508C170.623 91.8179 169.814 92.3195 169.421 93.1124L161.036 110.023C160.678 110.745 160.718 111.601 161.143 112.286C161.568 112.971 162.316 113.387 163.122 113.387H171.807L174.15 130.391H172.206C171.739 130.391 171.294 130.591 170.984 130.941C170.675 131.29 170.53 131.756 170.587 132.219L177.766 190.919C177.866 191.737 178.56 192.351 179.384 192.351H182.686L185.971 216.195C186.13 217.348 187.115 218.207 188.279 218.207H238.592C239.756 218.207 240.741 217.348 240.899 216.195L244.185 192.351H247.486C248.31 192.351 249.005 191.737 249.105 190.919L256.284 132.219C256.341 131.756 256.196 131.29 255.887 130.941C255.577 130.591 255.132 130.391 254.665 130.391H252.721L255.064 113.387H263.749C264.554 113.387 265.303 112.971 265.728 112.286C266.153 111.601 266.194 110.745 265.836 110.023ZM236.562 213.548H190.309L187.389 192.351H239.482L236.562 213.548ZM248.019 130.391H178.853L176.51 113.387H250.362L248.019 130.391ZM253.043 108.728C253.039 108.728 253.037 108.728 253.034 108.728H173.838C173.835 108.728 173.832 108.728 173.829 108.728H166.878L172.953 96.4764H217.628C218.915 96.4764 219.958 95.4334 219.958 94.1469C219.958 92.8603 218.915 91.8177 217.628 91.8177H179.539L181.333 88.2303H245.539L247.332 91.8177H242.785C241.499 91.8177 240.456 92.8606 240.456 94.1469C240.456 95.4331 241.499 96.4764 242.785 96.4764H253.918L259.994 108.728H253.043Z" fill="#0085C3"/>
</g>
</g>
</g>
</g>
<path d="M96.9813 67.7568C130.33 41.9826 171.288 28 213.436 28C255.584 28 296.541 41.9826 329.89 67.7568H323.849C291.971 43.9241 253.238 31.0456 213.436 31.0456C173.634 31.0456 134.901 43.9241 103.023 67.7568H96.9813ZM96.9813 369.114C130.33 394.889 171.288 408.871 213.436 408.871C255.584 408.871 296.541 394.889 329.89 369.114H323.849C291.971 392.947 253.238 405.826 213.436 405.826C173.634 405.826 134.901 392.947 103.023 369.114H96.9813Z" fill="#0085C3"/>
<g clip-path="url(#clip10_10_353)">
<g clip-path="url(#clip11_10_353)">
<path d="M400.063 234.022H26.8087C24.7052 234.022 23 235.375 23 237.043C23 238.711 24.7052 240.064 26.8087 240.064H400.063C402.167 240.064 403.872 238.711 403.872 237.043C403.872 235.375 402.167 234.022 400.063 234.022Z" fill="#0085C3"/>
<g clip-path="url(#clip12_10_353)">
<g clip-path="url(#clip13_10_353)">
<g clip-path="url(#clip14_10_353)">
<g clip-path="url(#clip15_10_353)">
<path d="M58.756 322.872C52.1807 322.872 46.2444 321.427 40.9469 318.536C35.6371 315.658 31.4811 311.676 28.4788 306.589C25.4641 301.503 23.9567 295.765 23.9567 289.376C23.9567 282.987 25.4765 277.249 28.516 272.162C31.5555 267.076 35.7302 263.087 41.04 260.196C46.3374 257.318 52.2738 255.879 58.849 255.879C64.1837 255.879 69.0531 256.81 73.4573 258.67C77.8614 260.531 81.5833 263.23 84.6228 266.765L76.8069 274.116C72.0926 269.03 66.2927 266.486 59.4073 266.486C54.9411 266.486 50.9401 267.46 47.4043 269.408C43.8686 271.368 41.1082 274.085 39.1232 277.559C37.1383 281.033 36.1458 284.972 36.1458 289.376C36.1458 293.78 37.1383 297.719 39.1232 301.193C41.1082 304.666 43.8686 307.377 47.4043 309.325C50.9401 311.285 54.9411 312.265 59.4073 312.265C66.2927 312.265 72.0926 309.691 76.8069 304.542L84.6228 311.986C81.5833 315.522 77.849 318.22 73.42 320.081C68.9786 321.942 64.0906 322.872 58.756 322.872ZM125.284 322.872C118.647 322.872 112.661 321.427 107.326 318.536C101.991 315.658 97.8043 311.657 94.7648 306.533C91.7253 301.422 90.2056 295.703 90.2056 289.376C90.2056 283.049 91.7253 277.323 94.7648 272.199C97.8043 267.088 101.991 263.087 107.326 260.196C112.661 257.318 118.647 255.879 125.284 255.879C131.921 255.879 137.907 257.318 143.242 260.196C148.577 263.087 152.764 267.076 155.803 272.162C158.843 277.249 160.362 282.987 160.362 289.376C160.362 295.765 158.843 301.503 155.803 306.589C152.764 311.676 148.577 315.658 143.242 318.536C137.907 321.427 131.921 322.872 125.284 322.872ZM125.284 312.265C129.626 312.265 133.534 311.285 137.008 309.325C140.481 307.377 143.211 304.648 145.196 301.137C147.181 297.638 148.173 293.718 148.173 289.376C148.173 285.034 147.181 281.107 145.196 277.596C143.211 274.098 140.481 271.368 137.008 269.408C133.534 267.46 129.626 266.486 125.284 266.486C120.942 266.486 117.034 267.46 113.56 269.408C110.086 271.368 107.357 274.098 105.372 277.596C103.387 281.107 102.395 285.034 102.395 289.376C102.395 293.718 103.387 297.638 105.372 301.137C107.357 304.648 110.086 307.377 113.56 309.325C117.034 311.285 120.942 312.265 125.284 312.265ZM220.749 266.952H185.299V286.77H216.748V297.005H185.299V321.942H173.203V256.81H220.749V266.952ZM280.001 266.952H244.55V286.77H276V297.005H244.55V321.942H232.454V256.81H280.001V266.952ZM303.821 311.8H340.574V321.942H291.725V256.81H339.271V266.952H303.821V283.886H335.27V293.842H303.821V311.8ZM366.162 311.8H402.915V321.942H354.066V256.81H401.612V266.952H366.162V283.886H397.611V293.842H366.162V311.8Z" fill="#0085C3"/>
</g>
</g>
<g clip-path="url(#clip16_10_353)">
<g clip-path="url(#clip17_10_353)">
<path d="M99.6226 353.054H99.0802C98.2847 353.054 97.6917 352.936 97.3011 352.7C96.9082 352.466 96.649 352.146 96.5237 351.741C96.3959 351.339 96.332 350.878 96.332 350.36V347.63C96.332 347.172 96.3959 346.742 96.5237 346.339C96.649 345.934 96.9082 345.601 97.3011 345.341C97.6917 345.083 98.2847 344.954 99.0802 344.954H99.6407C100.521 344.954 101.32 344.978 102.038 345.026C102.754 345.075 103.245 345.117 103.51 345.153V341.591H106.855V353.054H104.233L103.528 352.692C103.022 352.777 102.477 352.858 101.894 352.935C101.308 353.014 100.551 353.054 99.6226 353.054ZM100.545 350.776H102.949C103.203 350.776 103.359 350.746 103.419 350.685C103.48 350.625 103.51 350.475 103.51 350.233V347.359C103.209 347.335 102.853 347.307 102.443 347.276C102.033 347.247 101.581 347.232 101.087 347.232H100.545C99.9662 347.232 99.6769 347.473 99.6769 347.955V350.053C99.6769 350.294 99.7432 350.475 99.8758 350.595C100.008 350.716 100.231 350.776 100.545 350.776ZM116.636 353.054H111.61C110.814 353.054 110.218 352.939 109.82 352.71C109.422 352.481 109.159 352.164 109.032 351.759C108.906 351.357 108.844 350.89 108.844 350.36V347.63C108.844 347.124 108.91 346.668 109.042 346.263C109.175 345.86 109.437 345.541 109.827 345.305C110.22 345.071 110.814 344.954 111.61 344.954H116.636C117.432 344.954 118.025 345.071 118.415 345.305C118.808 345.541 119.067 345.86 119.193 346.263C119.32 346.668 119.384 347.124 119.384 347.63V350.36C119.384 350.89 119.32 351.357 119.193 351.759C119.067 352.164 118.808 352.481 118.415 352.71C118.025 352.939 117.432 353.054 116.636 353.054ZM113.056 350.776H115.208C115.786 350.776 116.07 350.535 116.058 350.053V347.955C116.058 347.714 115.994 347.533 115.866 347.413C115.741 347.292 115.521 347.232 115.208 347.232H113.074C112.761 347.232 112.538 347.292 112.405 347.413C112.273 347.533 112.206 347.714 112.206 347.955V350.053C112.194 350.535 112.478 350.776 113.056 350.776ZM124.718 353.054H121.373V344.954H123.995L124.718 345.316C125.222 345.219 125.833 345.135 126.551 345.063C127.27 344.99 127.942 344.954 128.569 344.954H129.473C130.076 344.954 130.54 345.038 130.865 345.207C131.188 345.376 131.42 345.587 131.56 345.84C131.699 346.093 131.784 346.35 131.813 346.61C131.844 346.868 131.86 347.088 131.86 347.268V353.054H128.547V347.955C128.547 347.473 128.259 347.232 127.683 347.232H125.26C125.031 347.232 124.883 347.253 124.816 347.294C124.751 347.337 124.718 347.449 124.718 347.63V353.054ZM135.201 344.375C135.02 344.375 134.849 344.263 134.687 344.039C134.524 343.817 134.375 343.532 134.243 343.182C134.11 342.833 133.993 342.459 133.892 342.061C133.788 341.663 133.71 341.29 133.657 340.94C133.601 340.591 133.574 340.307 133.574 340.09C133.574 339.608 133.694 339.265 133.935 339.06C134.176 338.855 134.598 338.753 135.201 338.753C135.84 338.753 136.277 338.855 136.514 339.06C136.747 339.265 136.864 339.608 136.864 340.09C136.864 340.295 136.838 340.576 136.785 340.933C136.729 341.287 136.651 341.66 136.55 342.05C136.446 342.443 136.322 342.817 136.177 343.171C136.033 343.528 135.88 343.817 135.718 344.039C135.554 344.263 135.382 344.375 135.201 344.375ZM142.939 353.054H141.818C140.902 353.054 140.275 352.861 139.938 352.475C139.6 352.09 139.432 351.511 139.432 350.74V347.232H137.949V344.954H138.708C138.913 344.954 139.079 344.914 139.204 344.835C139.332 344.758 139.414 344.617 139.45 344.412L139.793 342.477H142.758V344.954H145.778V347.232H142.758V350.035C142.758 350.336 142.831 350.535 142.975 350.631C143.12 350.728 143.337 350.776 143.626 350.776H145.434L145.796 352.873C145.543 352.909 145.157 352.948 144.639 352.989C144.12 353.032 143.554 353.054 142.939 353.054ZM154.33 353.054H153.787C152.992 353.054 152.398 352.936 152.005 352.7C151.614 352.466 151.355 352.146 151.227 351.741C151.102 351.339 151.039 350.878 151.039 350.36V347.63C151.039 347.172 151.102 346.742 151.227 346.339C151.355 345.934 151.614 345.601 152.005 345.341C152.398 345.083 152.992 344.954 153.787 344.954H154.348C155.228 344.954 156.026 344.978 156.742 345.026C157.46 345.075 157.952 345.117 158.217 345.153V341.591H161.562V353.054H158.94L158.235 352.692C157.729 352.777 157.183 352.858 156.597 352.935C156.014 353.014 155.258 353.054 154.33 353.054ZM155.252 350.776H157.657C157.91 350.776 158.066 350.746 158.127 350.685C158.187 350.625 158.217 350.475 158.217 350.233V347.359C157.916 347.335 157.56 347.307 157.15 347.276C156.74 347.247 156.288 347.232 155.794 347.232H155.252C154.673 347.232 154.384 347.473 154.384 347.955V350.053C154.384 350.294 154.45 350.475 154.583 350.595C154.715 350.716 154.938 350.776 155.252 350.776ZM167.018 353.054H163.728V344.954H166.295L166.982 345.316C167.537 344.954 168.272 344.773 169.188 344.773C169.791 344.773 170.321 344.836 170.779 344.961C171.237 345.089 171.608 345.225 171.893 345.37C172.175 345.515 172.352 345.617 172.424 345.677L171.52 348.028C171.4 347.943 171.175 347.829 170.844 347.684C170.512 347.54 170.122 347.403 169.676 347.276C169.23 347.15 168.76 347.088 168.266 347.088H168.067C167.73 347.088 167.47 347.144 167.29 347.257C167.109 347.373 167.018 347.624 167.018 348.01V353.054ZM175.516 344.177C174.299 344.177 173.69 343.658 173.69 342.622C173.69 342.043 173.844 341.642 174.153 341.418C174.459 341.196 174.914 341.085 175.516 341.085C176.155 341.085 176.623 341.196 176.919 341.418C177.213 341.642 177.36 342.043 177.36 342.622C177.36 343.658 176.746 344.177 175.516 344.177ZM177.143 353.054H173.853V344.954H177.143V353.054ZM182.875 353.054H179.53V344.954H182.152L182.875 345.316C183.381 345.219 183.992 345.135 184.708 345.063C185.427 344.99 186.099 344.954 186.726 344.954H187.63C188.233 344.954 188.697 345.038 189.022 345.207C189.348 345.376 189.579 345.587 189.716 345.84C189.856 346.093 189.941 346.35 189.97 346.61C190.001 346.868 190.017 347.088 190.017 347.268V353.054H186.708V347.955C186.708 347.473 186.419 347.232 185.84 347.232H183.417C183.188 347.232 183.04 347.253 182.972 347.294C182.907 347.337 182.875 347.449 182.875 347.63V353.054ZM201.479 353.235C200.889 353.235 200.373 353.175 199.932 353.054C199.493 352.933 199.075 352.674 198.677 352.277C198.436 352.035 198.195 351.794 197.954 351.553C197.713 351.312 197.472 351.071 197.231 350.83C197.038 350.625 196.881 350.465 196.76 350.349C196.64 350.236 196.522 350.158 196.406 350.114C196.293 350.073 196.134 350.053 195.929 350.053C195.664 350.053 195.507 350.077 195.459 350.125C195.41 350.173 195.386 350.336 195.386 350.613V353.054H192.096V341.609H195.386V347.738H195.965C196.17 347.738 196.363 347.654 196.544 347.485C196.652 347.377 196.817 347.178 197.039 346.889C197.263 346.599 197.508 346.28 197.773 345.93C198.038 345.581 198.279 345.261 198.496 344.972H202.293L202.004 345.533C201.714 345.894 201.379 346.292 200.998 346.726C200.62 347.16 200.252 347.558 199.896 347.919C199.541 348.281 199.256 348.534 199.039 348.679C199.509 348.992 199.949 349.326 200.358 349.68C200.768 350.037 201.293 350.354 201.931 350.631C202.353 350.812 202.711 350.929 203.005 350.982C203.302 351.037 203.51 351.065 203.631 351.065L203.125 353.054C203.004 353.09 202.802 353.13 202.517 353.173C202.235 353.214 201.889 353.235 201.479 353.235ZM214.891 353.054H211.456C210.661 353.054 210.049 352.939 209.623 352.71C209.194 352.481 208.901 352.164 208.744 351.759C208.587 351.357 208.509 350.89 208.509 350.36V347.63C208.509 347.148 208.591 346.704 208.755 346.299C208.916 345.897 209.208 345.571 209.63 345.323C210.052 345.077 210.661 344.954 211.456 344.954H213.77C215.156 344.954 216.175 345.014 216.826 345.135C217.477 345.255 217.844 345.376 217.929 345.496L217.386 347.413C217.133 347.389 216.675 347.353 216.012 347.304C215.349 347.256 214.62 347.232 213.825 347.232H212.722C212.408 347.232 212.185 347.292 212.053 347.413C211.92 347.533 211.854 347.714 211.854 347.955V350.053C211.854 350.294 211.914 350.475 212.035 350.595C212.155 350.716 212.384 350.776 212.722 350.776H213.644C214.536 350.776 215.305 350.754 215.951 350.711C216.594 350.67 217.067 350.631 217.368 350.595L218.453 352.313C218.453 352.481 218.155 352.647 217.56 352.808C216.962 352.972 216.073 353.054 214.891 353.054ZM227.331 353.054H222.304C221.509 353.054 220.912 352.939 220.514 352.71C220.117 352.481 219.854 352.164 219.726 351.759C219.601 351.357 219.538 350.89 219.538 350.36V347.63C219.538 347.124 219.604 346.668 219.737 346.263C219.869 345.86 220.131 345.541 220.522 345.305C220.914 345.071 221.509 344.954 222.304 344.954H227.331C228.126 344.954 228.719 345.071 229.11 345.305C229.503 345.541 229.762 345.86 229.887 346.263C230.015 346.668 230.079 347.124 230.079 347.63V350.36C230.079 350.89 230.015 351.357 229.887 351.759C229.762 352.164 229.503 352.481 229.11 352.71C228.719 352.939 228.126 353.054 227.331 353.054ZM223.751 350.776H225.902C226.481 350.776 226.764 350.535 226.752 350.053V347.955C226.752 347.714 226.688 347.533 226.56 347.413C226.435 347.292 226.216 347.232 225.902 347.232H223.769C223.455 347.232 223.232 347.292 223.1 347.413C222.967 347.533 222.901 347.714 222.901 347.955V350.053C222.889 350.535 223.172 350.776 223.751 350.776ZM236.114 353.054H232.827V347.232H231.344V344.972H232.827V343.725C232.827 341.941 233.802 341.049 235.752 341.049H237C238.446 341.049 239.486 341.115 240.12 341.248C240.752 341.38 241.068 341.495 241.068 341.591L240.525 343.688C240.323 343.604 239.957 343.522 239.426 343.443C238.893 343.365 238.255 343.327 237.51 343.327H236.985C236.684 343.327 236.463 343.381 236.324 343.49C236.184 343.598 236.114 343.785 236.114 344.05V344.972H239.517V347.232H236.114V353.054ZM244.756 353.054H241.466V347.232H239.983V344.972H241.466V343.725C241.466 341.941 242.442 341.049 244.395 341.049H245.642C247.089 341.049 248.129 341.115 248.763 341.248C249.394 341.38 249.71 341.495 249.71 341.591L249.168 343.688C248.963 343.604 248.595 343.522 248.065 343.443C247.535 343.365 246.896 343.327 246.148 343.327H245.624C245.323 343.327 245.103 343.381 244.966 343.49C244.826 343.598 244.756 343.785 244.756 344.05V344.972H248.155V347.232H244.756V353.054ZM256.328 353.054H252.477C251.681 353.054 251.069 352.939 250.64 352.71C250.213 352.481 249.921 352.164 249.764 351.759C249.608 351.357 249.529 350.89 249.529 350.36V347.63C249.529 347.148 249.61 346.704 249.772 346.299C249.936 345.897 250.229 345.571 250.65 345.323C251.072 345.077 251.681 344.954 252.477 344.954H256.219C257.159 344.954 257.879 345.065 258.378 345.287C258.879 345.511 259.223 345.824 259.408 346.227C259.596 346.632 259.691 347.1 259.691 347.63V349.944H256.526C255.442 349.944 254.618 349.92 254.057 349.872C253.497 349.824 253.103 349.794 252.874 349.781V350.053C252.862 350.535 253.151 350.776 253.742 350.776H254.303C255.267 350.776 256.159 350.754 256.978 350.711C257.798 350.67 258.407 350.631 258.805 350.595L259.889 352.313C259.889 352.433 259.787 352.548 259.582 352.656C259.377 352.765 259.018 352.858 258.504 352.935C257.993 353.014 257.268 353.054 256.328 353.054ZM252.874 347.955V348.208H256.346V347.955C256.346 347.714 256.324 347.546 256.281 347.449C256.24 347.353 256.111 347.292 255.894 347.268C255.677 347.244 255.309 347.232 254.791 347.232H253.742C253.164 347.232 252.874 347.473 252.874 347.955ZM268.315 353.054H264.464C263.668 353.054 263.056 352.939 262.627 352.71C262.2 352.481 261.908 352.164 261.752 351.759C261.595 351.357 261.517 350.89 261.517 350.36V347.63C261.517 347.148 261.597 346.704 261.759 346.299C261.923 345.897 262.216 345.571 262.638 345.323C263.059 345.077 263.668 344.954 264.464 344.954H268.206C269.146 344.954 269.866 345.065 270.365 345.287C270.867 345.511 271.21 345.824 271.396 346.227C271.584 346.632 271.678 347.1 271.678 347.63V349.944H268.514C267.429 349.944 266.606 349.92 266.044 349.872C265.485 349.824 265.09 349.794 264.861 349.781V350.053C264.849 350.535 265.139 350.776 265.729 350.776H266.29C267.254 350.776 268.146 350.754 268.966 350.711C269.785 350.67 270.394 350.631 270.792 350.595L271.877 352.313C271.877 352.433 271.774 352.548 271.569 352.656C271.364 352.765 271.005 352.858 270.492 352.935C269.981 353.014 269.255 353.054 268.315 353.054ZM264.861 347.955V348.208H268.333V347.955C268.333 347.714 268.311 347.546 268.268 347.449C268.227 347.353 268.098 347.292 267.881 347.268C267.664 347.244 267.296 347.232 266.778 347.232H265.729C265.151 347.232 264.861 347.473 264.861 347.955ZM280.895 353.054H280.353C279.292 353.054 278.533 352.855 278.074 352.457C277.616 352.06 277.387 351.397 277.387 350.469C277.387 349.613 277.626 348.992 278.103 348.606C278.578 348.221 279.328 348.028 280.353 348.028H280.913C281.588 348.028 282.233 348.052 282.848 348.1C283.462 348.148 283.993 348.196 284.439 348.245V347.955C284.439 347.787 284.403 347.624 284.33 347.467C284.258 347.311 284.005 347.232 283.571 347.232H282.667C281.353 347.232 280.341 347.253 279.629 347.294C278.918 347.337 278.478 347.377 278.31 347.413L278.111 345.496C278.111 345.376 278.322 345.276 278.743 345.196C279.165 345.119 279.744 345.059 280.479 345.016C281.214 344.975 282.052 344.954 282.992 344.954H284.8C285.596 344.954 286.205 345.071 286.626 345.305C287.048 345.541 287.338 345.858 287.494 346.256C287.651 346.654 287.729 347.112 287.729 347.63V353.054H285.162L284.457 352.692C284.168 352.753 283.707 352.827 283.075 352.917C282.441 353.008 281.715 353.054 280.895 353.054ZM281.401 350.921H283.896C284.162 350.921 284.318 350.896 284.366 350.848C284.415 350.8 284.439 350.649 284.439 350.396V349.763H281.401C281.172 349.763 281.003 349.806 280.895 349.89C280.787 349.974 280.732 350.137 280.732 350.378C280.732 350.607 280.787 350.754 280.895 350.819C281.003 350.887 281.172 350.921 281.401 350.921ZM293.28 353.054H289.989V343.038L289.809 341.591H293.28V353.054ZM303.061 353.054H298.035C297.24 353.054 296.643 352.939 296.245 352.71C295.847 352.481 295.585 352.164 295.457 351.759C295.331 351.357 295.269 350.89 295.269 350.36V347.63C295.269 347.124 295.335 346.668 295.468 346.263C295.6 345.86 295.862 345.541 296.252 345.305C296.645 345.071 297.24 344.954 298.035 344.954H303.061C303.857 344.954 304.45 345.071 304.84 345.305C305.233 345.541 305.493 345.86 305.618 346.263C305.746 346.668 305.81 347.124 305.81 347.63V350.36C305.81 350.89 305.746 351.357 305.618 351.759C305.493 352.164 305.233 352.481 304.84 352.71C304.45 352.939 303.857 353.054 303.061 353.054ZM299.481 350.776H301.633C302.212 350.776 302.495 350.535 302.483 350.053V347.955C302.483 347.714 302.419 347.533 302.291 347.413C302.166 347.292 301.946 347.232 301.633 347.232H299.5C299.186 347.232 298.963 347.292 298.831 347.413C298.698 347.533 298.632 347.714 298.632 347.955V350.053C298.62 350.535 298.903 350.776 299.481 350.776ZM311.14 353.054H307.795V344.954H310.416L311.14 345.316C311.646 345.219 312.258 345.135 312.977 345.063C313.693 344.99 314.364 344.954 314.991 344.954H315.895C316.497 344.954 316.961 345.038 317.287 345.207C317.612 345.376 317.845 345.587 317.985 345.84C318.122 346.093 318.207 346.35 318.238 346.61C318.267 346.868 318.281 347.088 318.281 347.268V353.054H314.973V347.955C314.973 347.473 314.683 347.232 314.105 347.232H311.682C311.453 347.232 311.306 347.253 311.241 347.294C311.173 347.337 311.14 347.449 311.14 347.63V353.054ZM326.978 353.054H323.127C322.331 353.054 321.72 352.939 321.293 352.71C320.864 352.481 320.571 352.164 320.415 351.759C320.258 351.357 320.18 350.89 320.18 350.36V347.63C320.18 347.148 320.262 346.704 320.426 346.299C320.587 345.897 320.879 345.571 321.301 345.323C321.723 345.077 322.331 344.954 323.127 344.954H326.869C327.81 344.954 328.53 345.065 329.032 345.287C329.531 345.511 329.874 345.824 330.062 346.227C330.248 346.632 330.341 347.1 330.341 347.63V349.944H327.177C326.092 349.944 325.27 349.92 324.711 349.872C324.149 349.824 323.754 349.794 323.525 349.781V350.053C323.513 350.535 323.802 350.776 324.392 350.776H324.953C325.917 350.776 326.809 350.754 327.629 350.711C328.448 350.67 329.057 350.631 329.455 350.595L330.54 352.313C330.54 352.433 330.437 352.548 330.232 352.656C330.027 352.765 329.669 352.858 329.158 352.935C328.645 353.014 327.918 353.054 326.978 353.054ZM323.525 347.955V348.208H326.996V347.955C326.996 347.714 326.975 347.546 326.934 347.449C326.891 347.353 326.761 347.292 326.544 347.268C326.327 347.244 325.959 347.232 325.441 347.232H324.392C323.814 347.232 323.525 347.473 323.525 347.955Z" fill="#C35353"/>
</g>
</g>
</g>
</g>
<g clip-path="url(#clip18_10_353)">
<g clip-path="url(#clip19_10_353)">
<path d="M265.836 110.023L257.45 93.1124C257.057 92.3195 256.249 91.8179 255.364 91.8179H252.54L249.061 84.8594C248.667 84.0701 247.86 83.5715 246.978 83.5715H179.894C179.011 83.5715 178.205 84.0701 177.81 84.8594L174.331 91.8179H171.508C170.623 91.8179 169.814 92.3195 169.421 93.1124L161.036 110.023C160.678 110.745 160.718 111.601 161.143 112.286C161.568 112.971 162.316 113.387 163.122 113.387H171.807L174.15 130.391H172.206C171.739 130.391 171.294 130.591 170.984 130.941C170.675 131.29 170.53 131.756 170.587 132.219L177.766 190.919C177.866 191.737 178.56 192.351 179.384 192.351H182.686L185.971 216.195C186.13 217.348 187.115 218.207 188.279 218.207H238.592C239.756 218.207 240.741 217.348 240.899 216.195L244.185 192.351H247.486C248.31 192.351 249.005 191.737 249.105 190.919L256.284 132.219C256.341 131.756 256.196 131.29 255.887 130.941C255.577 130.591 255.132 130.391 254.665 130.391H252.721L255.064 113.387H263.749C264.554 113.387 265.303 112.971 265.728 112.286C266.153 111.601 266.194 110.745 265.836 110.023ZM236.562 213.548H190.309L187.389 192.351H239.482L236.562 213.548ZM248.019 130.391H178.853L176.51 113.387H250.362L248.019 130.391ZM253.043 108.728C253.039 108.728 253.037 108.728 253.034 108.728H173.838C173.835 108.728 173.832 108.728 173.829 108.728H166.878L172.953 96.4764H217.628C218.915 96.4764 219.958 95.4334 219.958 94.1469C219.958 92.8603 218.915 91.8177 217.628 91.8177H179.539L181.333 88.2303H245.539L247.332 91.8177H242.785C241.499 91.8177 240.456 92.8606 240.456 94.1469C240.456 95.4331 241.499 96.4764 242.785 96.4764H253.918L259.994 108.728H253.043Z" fill="#0085C3"/>
</g>
</g>
</g>
</g>
<path d="M96.9813 67.7568C130.33 41.9826 171.288 28 213.436 28C255.584 28 296.541 41.9826 329.89 67.7568H323.849C291.971 43.9241 253.238 31.0456 213.436 31.0456C173.634 31.0456 134.901 43.9241 103.023 67.7568H96.9813ZM96.9813 369.114C130.33 394.889 171.288 408.871 213.436 408.871C255.584 408.871 296.541 394.889 329.89 369.114H323.849C291.971 392.947 253.238 405.826 213.436 405.826C173.634 405.826 134.901 392.947 103.023 369.114H96.9813Z" fill="#0085C3"/>
<defs>
<clipPath id="clip0_10_353">
<rect width="380.872" height="269.728" fill="white" transform="translate(23 83.5715)"/>
</clipPath>
<clipPath id="clip1_10_353">
<rect width="380.872" height="269.728" fill="white" transform="translate(23 83.5715)"/>
</clipPath>
<clipPath id="clip2_10_353">
<rect width="378.977" height="97.4204" fill="white" transform="translate(23.9474 255.879)"/>
</clipPath>
<clipPath id="clip3_10_353">
<rect width="378.977" height="97.4204" fill="white" transform="translate(23.9474 255.879)"/>
</clipPath>
<clipPath id="clip4_10_353">
<rect width="378.977" height="66.9932" fill="white" transform="translate(23.9474 255.879)"/>
</clipPath>
<clipPath id="clip5_10_353">
<rect width="378.977" height="66.9932" fill="white" transform="translate(23.9474 255.879)"/>
</clipPath>
<clipPath id="clip6_10_353">
<rect width="234.208" height="14.6118" fill="white" transform="translate(96.332 338.688)"/>
</clipPath>
<clipPath id="clip7_10_353">
<rect width="234.208" height="14.6118" fill="white" transform="translate(96.332 338.688)"/>
</clipPath>
<clipPath id="clip8_10_353">
<rect width="105.285" height="134.635" fill="white" transform="translate(160.793 83.5715)"/>
</clipPath>
<clipPath id="clip9_10_353">
<rect width="105.285" height="134.635" fill="white" transform="translate(160.793 83.5715)"/>
</clipPath>
<clipPath id="clip10_10_353">
<rect width="380.872" height="269.728" fill="white" transform="translate(23 83.5715)"/>
</clipPath>
<clipPath id="clip11_10_353">
<rect width="380.872" height="269.728" fill="white" transform="translate(23 83.5715)"/>
</clipPath>
<clipPath id="clip12_10_353">
<rect width="378.977" height="97.4204" fill="white" transform="translate(23.9474 255.879)"/>
</clipPath>
<clipPath id="clip13_10_353">
<rect width="378.977" height="97.4204" fill="white" transform="translate(23.9474 255.879)"/>
</clipPath>
<clipPath id="clip14_10_353">
<rect width="378.977" height="66.9932" fill="white" transform="translate(23.9474 255.879)"/>
</clipPath>
<clipPath id="clip15_10_353">
<rect width="378.977" height="66.9932" fill="white" transform="translate(23.9474 255.879)"/>
</clipPath>
<clipPath id="clip16_10_353">
<rect width="234.208" height="14.6118" fill="white" transform="translate(96.332 338.688)"/>
</clipPath>
<clipPath id="clip17_10_353">
<rect width="234.208" height="14.6118" fill="white" transform="translate(96.332 338.688)"/>
</clipPath>
<clipPath id="clip18_10_353">
<rect width="105.285" height="134.635" fill="white" transform="translate(160.793 83.5715)"/>
</clipPath>
<clipPath id="clip19_10_353">
<rect width="105.285" height="134.635" fill="white" transform="translate(160.793 83.5715)"/>
</clipPath>
</defs>
</svg>
