<svg width="381" height="270" viewBox="0 0 381 270" fill="none" xmlns="http://www.w3.org/2000/svg">
<g clip-path="url(#clip0_3_33)">
<g clip-path="url(#clip1_3_33)">
<path d="M377.063 150.451H3.80872C1.70522 150.451 0 151.803 0 153.471C0 155.14 1.70522 156.492 3.80872 156.492H377.063C379.167 156.492 380.872 155.14 380.872 153.471C380.872 151.803 379.167 150.451 377.063 150.451Z" fill="#FBFBFB"/>
<g clip-path="url(#clip2_3_33)">
<g clip-path="url(#clip3_3_33)">
<g clip-path="url(#clip4_3_33)">
<g clip-path="url(#clip5_3_33)">
<path d="M35.7559 239.301C29.1807 239.301 23.2443 237.855 17.9469 234.965C12.6371 232.087 8.48099 228.104 5.47871 223.018C2.46401 217.931 0.956665 212.193 0.956665 205.804C0.956665 199.415 2.47642 193.677 5.51592 188.591C8.55543 183.504 12.7301 179.516 18.0399 176.625C23.3374 173.747 29.2737 172.308 35.849 172.308C41.1836 172.308 46.053 173.238 50.4572 175.099C54.8614 176.96 58.5832 179.658 61.6227 183.194L53.8069 190.545C49.0925 185.458 43.2926 182.915 36.4072 182.915C31.941 182.915 27.94 183.889 24.4043 185.836C20.8685 187.797 18.1082 190.514 16.1232 193.987C14.1382 197.461 13.1457 201.4 13.1457 205.804C13.1457 210.208 14.1382 214.147 16.1232 217.621C18.1082 221.095 20.8685 223.805 24.4043 225.753C27.94 227.713 31.941 228.693 36.4072 228.693C43.2926 228.693 49.0925 226.119 53.8069 220.971L61.6227 228.414C58.5832 231.95 54.849 234.648 50.42 236.509C45.9786 238.37 41.0906 239.301 35.7559 239.301ZM102.284 239.301C95.6466 239.301 89.6606 237.855 84.326 234.965C78.9913 232.087 74.8043 228.086 71.7648 222.962C68.7253 217.851 67.2055 212.131 67.2055 205.804C67.2055 199.477 68.7253 193.752 71.7648 188.628C74.8043 183.516 78.9913 179.516 84.326 176.625C89.6606 173.747 95.6466 172.308 102.284 172.308C108.921 172.308 114.907 173.747 120.242 176.625C125.576 179.516 129.764 183.504 132.803 188.591C135.843 193.677 137.362 199.415 137.362 205.804C137.362 212.193 135.843 217.931 132.803 223.018C129.764 228.104 125.576 232.087 120.242 234.965C114.907 237.855 108.921 239.301 102.284 239.301ZM102.284 228.693C106.626 228.693 110.534 227.713 114.008 225.753C117.481 223.805 120.211 221.076 122.196 217.565C124.181 214.067 125.173 210.146 125.173 205.804C125.173 201.462 124.181 197.535 122.196 194.024C120.211 190.526 117.481 187.797 114.008 185.836C110.534 183.889 106.626 182.915 102.284 182.915C97.9417 182.915 94.0338 183.889 90.5601 185.836C87.0863 187.797 84.357 190.526 82.372 194.024C80.387 197.535 79.3945 201.462 79.3945 205.804C79.3945 210.146 80.387 214.067 82.372 217.565C84.357 221.076 87.0863 223.805 90.5601 225.753C94.0338 227.713 97.9417 228.693 102.284 228.693ZM197.749 183.38H162.299V203.199H193.748V213.434H162.299V238.37H150.203V173.238H197.749V183.38ZM257.001 183.38H221.55V203.199H253V213.434H221.55V238.37H209.454V173.238H257.001V183.38ZM280.821 228.228H317.574V238.37H268.725V173.238H316.271V183.38H280.821V200.314H312.27V210.27H280.821V228.228ZM343.162 228.228H379.915V238.37H331.066V173.238H378.612V183.38H343.162V200.314H374.611V210.27H343.162V228.228Z" fill="#FBFBFB"/>
</g>
</g>
<g clip-path="url(#clip6_3_33)">
<g clip-path="url(#clip7_3_33)">
<path d="M76.6225 269.482H76.0801C75.2846 269.482 74.6915 269.364 74.301 269.128C73.9081 268.894 73.6489 268.575 73.5236 268.17C73.3958 267.767 73.3319 267.307 73.3319 266.788V264.058C73.3319 263.6 73.3958 263.17 73.5236 262.767C73.6489 262.362 73.9081 262.03 74.301 261.769C74.6915 261.511 75.2846 261.382 76.0801 261.382H76.6406C77.5205 261.382 78.3196 261.407 79.038 261.455C79.754 261.503 80.2446 261.545 80.5098 261.581V258.02H83.8546V269.482H81.233L80.5278 269.121C80.0216 269.205 79.4768 269.286 78.8934 269.363C78.3076 269.443 77.5506 269.482 76.6225 269.482ZM77.5446 267.204H79.9493C80.2024 267.204 80.3591 267.174 80.4194 267.114C80.4796 267.054 80.5098 266.903 80.5098 266.662V263.787C80.2084 263.763 79.8528 263.735 79.443 263.704C79.0332 263.675 78.5812 263.661 78.087 263.661H77.5446C76.966 263.661 76.6768 263.902 76.6768 264.384V266.481C76.6768 266.722 76.743 266.903 76.8756 267.024C77.0082 267.144 77.2312 267.204 77.5446 267.204ZM93.636 269.482H88.6097C87.8142 269.482 87.2175 269.368 86.8198 269.139C86.422 268.91 86.1592 268.593 86.0315 268.188C85.9061 267.785 85.8434 267.319 85.8434 266.788V264.058C85.8434 263.552 85.9097 263.097 86.0423 262.692C86.1749 262.289 86.4365 261.97 86.827 261.733C87.2199 261.499 87.8142 261.382 88.6097 261.382H93.636C94.4315 261.382 95.0246 261.499 95.4151 261.733C95.808 261.97 96.0672 262.289 96.1926 262.692C96.3203 263.097 96.3842 263.552 96.3842 264.058V266.788C96.3842 267.319 96.3203 267.785 96.1926 268.188C96.0672 268.593 95.808 268.91 95.4151 269.139C95.0246 269.368 94.4315 269.482 93.636 269.482ZM90.0561 267.204H92.2077C92.7862 267.204 93.0695 266.963 93.0574 266.481V264.384C93.0574 264.143 92.9936 263.962 92.8658 263.841C92.7404 263.721 92.5211 263.661 92.2077 263.661H90.0742C89.7608 263.661 89.5378 263.721 89.4052 263.841C89.2726 263.962 89.2064 264.143 89.2064 264.384V266.481C89.1943 266.963 89.4776 267.204 90.0561 267.204ZM101.718 269.482H98.373V261.382H100.995L101.718 261.744C102.222 261.648 102.833 261.563 103.551 261.491C104.27 261.419 104.942 261.382 105.569 261.382H106.473C107.076 261.382 107.54 261.467 107.865 261.636C108.188 261.804 108.42 262.015 108.559 262.268C108.699 262.522 108.784 262.778 108.813 263.039C108.844 263.297 108.86 263.516 108.86 263.697V269.482H105.547V264.384C105.547 263.902 105.259 263.661 104.683 263.661H102.26C102.031 263.661 101.883 263.681 101.816 263.722C101.75 263.765 101.718 263.878 101.718 264.058V269.482ZM112.201 260.804C112.02 260.804 111.849 260.692 111.687 260.468C111.523 260.246 111.375 259.96 111.243 259.611C111.11 259.261 110.993 258.887 110.892 258.49C110.788 258.092 110.71 257.718 110.657 257.369C110.601 257.019 110.574 256.736 110.574 256.519C110.574 256.037 110.694 255.693 110.935 255.488C111.176 255.283 111.598 255.181 112.201 255.181C112.84 255.181 113.277 255.283 113.513 255.488C113.747 255.693 113.864 256.037 113.864 256.519C113.864 256.724 113.838 257.005 113.785 257.361C113.729 257.716 113.651 258.088 113.55 258.479C113.446 258.872 113.322 259.245 113.177 259.6C113.032 259.957 112.879 260.246 112.718 260.468C112.554 260.692 112.382 260.804 112.201 260.804ZM119.939 269.482H118.818C117.902 269.482 117.275 269.29 116.938 268.904C116.6 268.518 116.432 267.94 116.432 267.168V263.661H114.949V261.382H115.708C115.913 261.382 116.078 261.343 116.204 261.263C116.332 261.186 116.413 261.045 116.45 260.84L116.793 258.906H119.758V261.382H122.778V263.661H119.758V266.463C119.758 266.764 119.831 266.963 119.975 267.06C120.12 267.156 120.337 267.204 120.626 267.204H122.434L122.796 269.302C122.543 269.338 122.157 269.376 121.639 269.417C121.12 269.461 120.554 269.482 119.939 269.482ZM131.33 269.482H130.787C129.992 269.482 129.397 269.364 129.005 269.128C128.614 268.894 128.355 268.575 128.227 268.17C128.102 267.767 128.039 267.307 128.039 266.788V264.058C128.039 263.6 128.102 263.17 128.227 262.767C128.355 262.362 128.614 262.03 129.005 261.769C129.397 261.511 129.992 261.382 130.787 261.382H131.348C132.228 261.382 133.026 261.407 133.742 261.455C134.46 261.503 134.952 261.545 135.217 261.581V258.02H138.562V269.482H135.94L135.235 269.121C134.729 269.205 134.183 269.286 133.597 269.363C133.014 269.443 132.258 269.482 131.33 269.482ZM132.252 267.204H134.656C134.91 267.204 135.066 267.174 135.127 267.114C135.187 267.054 135.217 266.903 135.217 266.662V263.787C134.916 263.763 134.56 263.735 134.15 263.704C133.74 263.675 133.288 263.661 132.794 263.661H132.252C131.673 263.661 131.384 263.902 131.384 264.384V266.481C131.384 266.722 131.45 266.903 131.583 267.024C131.715 267.144 131.938 267.204 132.252 267.204ZM144.018 269.482H140.728V261.382H143.295L143.982 261.744C144.537 261.382 145.272 261.202 146.188 261.202C146.791 261.202 147.321 261.264 147.779 261.39C148.237 261.517 148.608 261.654 148.893 261.798C149.175 261.943 149.352 262.045 149.424 262.106L148.52 264.456C148.4 264.372 148.174 264.257 147.844 264.113C147.511 263.968 147.122 263.832 146.676 263.704C146.23 263.579 145.76 263.516 145.266 263.516H145.067C144.73 263.516 144.47 263.573 144.29 263.686C144.109 263.802 144.018 264.052 144.018 264.438V269.482ZM152.516 260.605C151.299 260.605 150.69 260.087 150.69 259.05C150.69 258.472 150.844 258.07 151.153 257.846C151.459 257.624 151.913 257.513 152.516 257.513C153.155 257.513 153.623 257.624 153.919 257.846C154.213 258.07 154.36 258.472 154.36 259.05C154.36 260.087 153.746 260.605 152.516 260.605ZM154.143 269.482H150.853V261.382H154.143V269.482ZM159.875 269.482H156.53V261.382H159.152L159.875 261.744C160.381 261.648 160.992 261.563 161.708 261.491C162.426 261.419 163.099 261.382 163.726 261.382H164.63C165.233 261.382 165.697 261.467 166.022 261.636C166.347 261.804 166.579 262.015 166.716 262.268C166.856 262.522 166.94 262.778 166.969 263.039C167.001 263.297 167.016 263.516 167.016 263.697V269.482H163.708V264.384C163.708 263.902 163.418 263.661 162.84 263.661H160.417C160.188 263.661 160.04 263.681 159.972 263.722C159.907 263.765 159.875 263.878 159.875 264.058V269.482ZM178.479 269.663C177.889 269.663 177.373 269.603 176.932 269.482C176.493 269.362 176.075 269.103 175.677 268.705C175.436 268.464 175.195 268.223 174.954 267.982C174.713 267.741 174.472 267.5 174.23 267.259C174.038 267.054 173.881 266.893 173.76 266.778C173.64 266.664 173.522 266.586 173.406 266.543C173.293 266.502 173.134 266.481 172.929 266.481C172.663 266.481 172.507 266.505 172.459 266.553C172.41 266.602 172.386 266.764 172.386 267.042V269.482H169.096V258.038H172.386V264.167H172.965C173.17 264.167 173.363 264.082 173.543 263.914C173.652 263.805 173.817 263.606 174.039 263.317C174.263 263.028 174.508 262.708 174.773 262.359C175.038 262.009 175.279 261.69 175.496 261.401H179.293L179.004 261.961C178.714 262.323 178.379 262.72 177.998 263.154C177.62 263.588 177.252 263.986 176.895 264.348C176.541 264.709 176.255 264.962 176.038 265.107C176.509 265.42 176.948 265.754 177.358 266.109C177.768 266.465 178.292 266.782 178.931 267.06C179.353 267.24 179.711 267.357 180.005 267.41C180.302 267.466 180.51 267.494 180.631 267.494L180.125 269.482C180.004 269.519 179.802 269.558 179.517 269.602C179.235 269.643 178.889 269.663 178.479 269.663ZM191.891 269.482H188.456C187.66 269.482 187.049 269.368 186.623 269.139C186.194 268.91 185.901 268.593 185.744 268.188C185.587 267.785 185.509 267.319 185.509 266.788V264.058C185.509 263.576 185.591 263.133 185.755 262.728C185.916 262.325 186.208 262 186.63 261.751C187.052 261.505 187.66 261.382 188.456 261.382H190.77C192.156 261.382 193.175 261.443 193.826 261.563C194.477 261.684 194.844 261.804 194.929 261.925L194.386 263.841C194.133 263.817 193.675 263.781 193.012 263.733C192.349 263.685 191.62 263.661 190.824 263.661H189.722C189.408 263.661 189.185 263.721 189.053 263.841C188.92 263.962 188.854 264.143 188.854 264.384V266.481C188.854 266.722 188.914 266.903 189.035 267.024C189.155 267.144 189.384 267.204 189.722 267.204H190.644C191.536 267.204 192.305 267.183 192.951 267.139C193.594 267.098 194.067 267.06 194.368 267.024L195.453 268.741C195.453 268.91 195.155 269.075 194.56 269.237C193.962 269.4 193.072 269.482 191.891 269.482ZM204.33 269.482H199.304C198.509 269.482 197.912 269.368 197.514 269.139C197.116 268.91 196.854 268.593 196.726 268.188C196.6 267.785 196.538 267.319 196.538 266.788V264.058C196.538 263.552 196.604 263.097 196.737 262.692C196.869 262.289 197.131 261.97 197.521 261.733C197.914 261.499 198.509 261.382 199.304 261.382H204.33C205.126 261.382 205.719 261.499 206.109 261.733C206.502 261.97 206.762 262.289 206.887 262.692C207.015 263.097 207.079 263.552 207.079 264.058V266.788C207.079 267.319 207.015 267.785 206.887 268.188C206.762 268.593 206.502 268.91 206.109 269.139C205.719 269.368 205.126 269.482 204.33 269.482ZM200.751 267.204H202.902C203.481 267.204 203.764 266.963 203.752 266.481V264.384C203.752 264.143 203.688 263.962 203.56 263.841C203.435 263.721 203.215 263.661 202.902 263.661H200.769C200.455 263.661 200.232 263.721 200.1 263.841C199.967 263.962 199.901 264.143 199.901 264.384V266.481C199.889 266.963 200.172 267.204 200.751 267.204ZM213.114 269.482H209.827V263.661H208.344V261.401H209.827V260.153C209.827 258.369 210.802 257.477 212.752 257.477H214C215.446 257.477 216.486 257.543 217.12 257.676C217.752 257.809 218.068 257.923 218.068 258.02L217.525 260.117C217.323 260.033 216.956 259.951 216.426 259.871C215.893 259.794 215.254 259.755 214.51 259.755H213.985C213.684 259.755 213.463 259.81 213.324 259.918C213.184 260.026 213.114 260.213 213.114 260.478V261.401H216.516V263.661H213.114V269.482ZM221.756 269.482H218.466V263.661H216.983V261.401H218.466V260.153C218.466 258.369 219.442 257.477 221.395 257.477H222.642C224.088 257.477 225.129 257.543 225.763 257.676C226.394 257.809 226.71 257.923 226.71 258.02L226.168 260.117C225.963 260.033 225.595 259.951 225.065 259.871C224.534 259.794 223.896 259.755 223.148 259.755H222.624C222.323 259.755 222.103 259.81 221.966 259.918C221.826 260.026 221.756 260.213 221.756 260.478V261.401H225.155V263.661H221.756V269.482ZM233.327 269.482H229.476C228.681 269.482 228.069 269.368 227.639 269.139C227.213 268.91 226.921 268.593 226.764 268.188C226.608 267.785 226.529 267.319 226.529 266.788V264.058C226.529 263.576 226.61 263.133 226.772 262.728C226.936 262.325 227.228 262 227.65 261.751C228.072 261.505 228.681 261.382 229.476 261.382H233.219C234.159 261.382 234.879 261.493 235.378 261.715C235.879 261.939 236.223 262.253 236.408 262.655C236.596 263.06 236.69 263.528 236.69 264.058V266.373H233.526C232.442 266.373 231.618 266.349 231.057 266.3C230.497 266.252 230.103 266.222 229.874 266.21V266.481C229.862 266.963 230.151 267.204 230.742 267.204H231.302C232.267 267.204 233.159 267.183 233.978 267.139C234.798 267.098 235.407 267.06 235.804 267.024L236.889 268.741C236.889 268.862 236.787 268.976 236.582 269.085C236.377 269.193 236.018 269.286 235.504 269.363C234.993 269.443 234.268 269.482 233.327 269.482ZM229.874 264.384V264.637H233.346V264.384C233.346 264.143 233.324 263.974 233.28 263.878C233.239 263.781 233.111 263.721 232.894 263.697C232.677 263.673 232.309 263.661 231.791 263.661H230.742C230.163 263.661 229.874 263.902 229.874 264.384ZM245.315 269.482H241.464C240.668 269.482 240.056 269.368 239.627 269.139C239.2 268.91 238.908 268.593 238.752 268.188C238.595 267.785 238.516 267.319 238.516 266.788V264.058C238.516 263.576 238.597 263.133 238.759 262.728C238.923 262.325 239.216 262 239.637 261.751C240.059 261.505 240.668 261.382 241.464 261.382H245.206C246.146 261.382 246.866 261.493 247.365 261.715C247.866 261.939 248.21 262.253 248.396 262.655C248.584 263.06 248.678 263.528 248.678 264.058V266.373H245.514C244.429 266.373 243.605 266.349 243.044 266.3C242.484 266.252 242.09 266.222 241.861 266.21V266.481C241.849 266.963 242.139 267.204 242.729 267.204H243.29C244.254 267.204 245.146 267.183 245.966 267.139C246.785 267.098 247.394 267.06 247.792 267.024L248.876 268.741C248.876 268.862 248.774 268.976 248.569 269.085C248.364 269.193 248.005 269.286 247.492 269.363C246.98 269.443 246.255 269.482 245.315 269.482ZM241.861 264.384V264.637H245.333V264.384C245.333 264.143 245.311 263.974 245.268 263.878C245.227 263.781 245.098 263.721 244.881 263.697C244.664 263.673 244.296 263.661 243.778 263.661H242.729C242.151 263.661 241.861 263.902 241.861 264.384ZM257.895 269.482H257.352C256.292 269.482 255.532 269.284 255.074 268.886C254.616 268.488 254.387 267.825 254.387 266.897C254.387 266.041 254.626 265.42 255.103 265.035C255.578 264.649 256.328 264.456 257.352 264.456H257.913C258.588 264.456 259.233 264.48 259.848 264.528C260.462 264.577 260.993 264.625 261.439 264.673V264.384C261.439 264.215 261.402 264.052 261.33 263.896C261.258 263.739 261.005 263.661 260.571 263.661H259.667C258.353 263.661 257.34 263.681 256.629 263.722C255.918 263.765 255.478 263.805 255.309 263.841L255.111 261.925C255.111 261.804 255.321 261.704 255.743 261.625C256.165 261.548 256.744 261.487 257.479 261.444C258.214 261.403 259.052 261.382 259.992 261.382H261.8C262.596 261.382 263.204 261.499 263.626 261.733C264.048 261.97 264.337 262.287 264.494 262.684C264.651 263.082 264.729 263.54 264.729 264.058V269.482H262.162L261.457 269.121C261.167 269.181 260.707 269.256 260.075 269.345C259.441 269.437 258.715 269.482 257.895 269.482ZM258.401 267.349H260.896C261.161 267.349 261.318 267.325 261.366 267.277C261.415 267.228 261.439 267.078 261.439 266.825V266.192H258.401C258.172 266.192 258.003 266.234 257.895 266.318C257.786 266.403 257.732 266.565 257.732 266.807C257.732 267.036 257.786 267.183 257.895 267.248C258.003 267.315 258.172 267.349 258.401 267.349ZM270.28 269.482H266.989V259.466L266.808 258.02H270.28V269.482ZM280.061 269.482H275.035C274.239 269.482 273.643 269.368 273.245 269.139C272.847 268.91 272.584 268.593 272.457 268.188C272.331 267.785 272.269 267.319 272.269 266.788V264.058C272.269 263.552 272.335 263.097 272.468 262.692C272.6 262.289 272.862 261.97 273.252 261.733C273.645 261.499 274.239 261.382 275.035 261.382H280.061C280.857 261.382 281.45 261.499 281.84 261.733C282.233 261.97 282.492 262.289 282.618 262.692C282.746 263.097 282.809 263.552 282.809 264.058V266.788C282.809 267.319 282.746 267.785 282.618 268.188C282.492 268.593 282.233 268.91 281.84 269.139C281.45 269.368 280.857 269.482 280.061 269.482ZM276.481 267.204H278.633C279.211 267.204 279.495 266.963 279.483 266.481V264.384C279.483 264.143 279.419 263.962 279.291 263.841C279.166 263.721 278.946 263.661 278.633 263.661H276.499C276.186 263.661 275.963 263.721 275.83 263.841C275.698 263.962 275.632 264.143 275.632 264.384V266.481C275.62 266.963 275.903 267.204 276.481 267.204ZM288.139 269.482H284.795V261.382H287.416L288.139 261.744C288.646 261.648 289.258 261.563 289.976 261.491C290.692 261.419 291.364 261.382 291.991 261.382H292.895C293.497 261.382 293.961 261.467 294.287 261.636C294.612 261.804 294.845 262.015 294.985 262.268C295.122 262.522 295.206 262.778 295.238 263.039C295.267 263.297 295.281 263.516 295.281 263.697V269.482H291.973V264.384C291.973 263.902 291.683 263.661 291.105 263.661H288.682C288.453 263.661 288.306 263.681 288.241 263.722C288.173 263.765 288.139 263.878 288.139 264.058V269.482ZM303.978 269.482H300.127C299.331 269.482 298.72 269.368 298.293 269.139C297.864 268.91 297.571 268.593 297.415 268.188C297.258 267.785 297.18 267.319 297.18 266.788V264.058C297.18 263.576 297.262 263.133 297.425 262.728C297.587 262.325 297.879 262 298.301 261.751C298.722 261.505 299.331 261.382 300.127 261.382H303.869C304.809 261.382 305.53 261.493 306.032 261.715C306.531 261.939 306.874 262.253 307.062 262.655C307.248 263.06 307.341 263.528 307.341 264.058V266.373H304.177C303.092 266.373 302.27 266.349 301.711 266.3C301.149 266.252 300.753 266.222 300.524 266.21V266.481C300.512 266.963 300.802 267.204 301.392 267.204H301.953C302.917 267.204 303.809 267.183 304.629 267.139C305.448 267.098 306.057 267.06 306.455 267.024L307.54 268.741C307.54 268.862 307.437 268.976 307.232 269.085C307.027 269.193 306.669 269.286 306.158 269.363C305.645 269.443 304.918 269.482 303.978 269.482ZM300.524 264.384V264.637H303.996V264.384C303.996 264.143 303.975 263.974 303.934 263.878C303.891 263.781 303.761 263.721 303.544 263.697C303.327 263.673 302.959 263.661 302.441 263.661H301.392C300.814 263.661 300.524 263.902 300.524 264.384Z" fill="#EA5455"/>
</g>
</g>
</g>
</g>
<g clip-path="url(#clip8_3_33)">
<g clip-path="url(#clip9_3_33)">
<path d="M242.836 26.4515L234.45 9.54083C234.057 8.74797 233.249 8.24639 232.364 8.24639H229.54L226.061 1.28789C225.667 0.498575 224.86 0 223.978 0H156.894C156.011 0 155.205 0.498575 154.81 1.28789L151.331 8.24639H148.508C147.623 8.24639 146.814 8.74797 146.421 9.54083L138.036 26.4515C137.678 27.1734 137.718 28.0293 138.143 28.7141C138.568 29.3993 139.316 29.8155 140.122 29.8155H148.807L151.15 46.8194H149.206C148.739 46.8194 148.294 47.0196 147.984 47.3695C147.675 47.7189 147.53 48.1842 147.587 48.6479L154.766 107.347C154.866 108.165 155.56 108.78 156.384 108.78H159.686L162.971 132.624C163.13 133.777 164.115 134.635 165.279 134.635H215.592C216.756 134.635 217.741 133.777 217.899 132.624L221.185 108.78H224.486C225.31 108.78 226.005 108.165 226.105 107.347L233.284 48.6479C233.341 48.1842 233.196 47.7189 232.887 47.3695C232.577 47.0196 232.132 46.8194 231.665 46.8194H229.721L232.064 29.8155H240.749C241.554 29.8155 242.303 29.3993 242.728 28.7141C243.153 28.029 243.194 27.1734 242.836 26.4515ZM213.562 129.976H167.309L164.389 108.779H216.482L213.562 129.976ZM225.019 46.8191H155.853L153.51 29.8152H227.362L225.019 46.8191ZM230.043 25.1567C230.039 25.1567 230.037 25.1562 230.034 25.1562H150.838C150.835 25.1562 150.832 25.1567 150.829 25.1567H143.878L149.953 12.9048H194.628C195.915 12.9048 196.958 11.8619 196.958 10.5753C196.958 9.28882 195.915 8.24612 194.628 8.24612H156.539L158.333 4.65873H222.539L224.332 8.24612H219.785C218.499 8.24612 217.456 9.28909 217.456 10.5753C217.456 11.8616 218.499 12.9048 219.785 12.9048H230.918L236.994 25.1567H230.043Z" fill="#FBFBFB"/>
</g>
</g>
</g>
</g>
<defs>
<clipPath id="clip0_3_33">
<rect width="380.872" height="269.728" fill="white"/>
</clipPath>
<clipPath id="clip1_3_33">
<rect width="380.872" height="269.728" fill="white"/>
</clipPath>
<clipPath id="clip2_3_33">
<rect width="378.977" height="97.4204" fill="white" transform="translate(0.947388 172.308)"/>
</clipPath>
<clipPath id="clip3_3_33">
<rect width="378.977" height="97.4204" fill="white" transform="translate(0.947388 172.308)"/>
</clipPath>
<clipPath id="clip4_3_33">
<rect width="378.977" height="66.9932" fill="white" transform="translate(0.947388 172.308)"/>
</clipPath>
<clipPath id="clip5_3_33">
<rect width="378.977" height="66.9932" fill="white" transform="translate(0.947388 172.308)"/>
</clipPath>
<clipPath id="clip6_3_33">
<rect width="234.208" height="14.6118" fill="white" transform="translate(73.3319 255.116)"/>
</clipPath>
<clipPath id="clip7_3_33">
<rect width="234.208" height="14.6118" fill="white" transform="translate(73.3319 255.116)"/>
</clipPath>
<clipPath id="clip8_3_33">
<rect width="105.285" height="134.635" fill="white" transform="translate(137.793)"/>
</clipPath>
<clipPath id="clip9_3_33">
<rect width="105.285" height="134.635" fill="white" transform="translate(137.793)"/>
</clipPath>
</defs>
</svg>
