<svg width="117" height="125" viewBox="0 0 117 125" fill="none" xmlns="http://www.w3.org/2000/svg">
<g clip-path="url(#clip0_1_656)">
<g clip-path="url(#clip1_1_656)">
<path d="M106.883 24.4667L99.1268 8.82494C98.7633 8.09157 98.0153 7.62763 97.1966 7.62763H94.585L91.367 1.19126C91.0022 0.461165 90.2562 0 89.4401 0H27.3895C26.5734 0 25.8274 0.461165 25.4623 1.19126L22.244 7.62763H19.6329C18.8143 7.62763 18.0665 8.09157 17.7027 8.82494L9.94645 24.4667C9.61546 25.1345 9.6528 25.9261 10.0458 26.5596C10.4389 27.1933 11.1311 27.5783 11.8766 27.5783H19.9099L22.0767 43.3063H20.2783C19.8464 43.3063 19.4351 43.4915 19.1488 43.8152C18.8625 44.1383 18.7288 44.5687 18.781 44.9976L25.4212 99.2924C25.5138 100.049 26.1563 100.617 26.9185 100.617H29.9723L33.011 122.672C33.1581 123.739 34.069 124.533 35.1453 124.533H81.6835C82.7602 124.533 83.671 123.739 83.8178 122.672L86.8565 100.617H89.9103C90.6724 100.617 91.315 100.049 91.4076 99.2924L98.0483 44.9976C98.1005 44.5687 97.9668 44.1383 97.6807 43.8152C97.3939 43.4915 96.9827 43.3063 96.5508 43.3063H94.752L96.9191 27.5783H104.952C105.698 27.5783 106.39 27.1933 106.783 26.5596C107.177 25.9259 107.215 25.1345 106.883 24.4667ZM79.8058 120.223H37.0237L34.3226 100.617H82.507L79.8058 120.223ZM90.4033 43.3061H26.4265L24.2597 27.578H92.5698L90.4033 43.3061ZM95.0497 23.2691C95.0464 23.2691 95.0444 23.2686 95.0417 23.2686H21.7879C21.7854 23.2686 21.7826 23.2691 21.7801 23.2691H15.35L20.9695 11.9365H62.2927C63.4827 11.9365 64.4474 10.9718 64.4474 9.78183C64.4474 8.59184 63.4827 7.62738 62.2927 7.62738H27.0618L28.721 4.30916H88.1088L89.7678 7.62738H85.562C84.3721 7.62738 83.4073 8.59209 83.4073 9.78183C83.4073 10.9716 84.3721 11.9365 85.562 11.9365H95.8598L101.479 23.2691H95.0497Z" fill="#745A40"/>
</g>
</g>
<defs>
<clipPath id="clip0_1_656">
<rect width="116.83" height="124.533" fill="white"/>
</clipPath>
<clipPath id="clip1_1_656">
<rect width="97.3853" height="124.533" fill="white" transform="translate(9.72222)"/>
</clipPath>
</defs>
</svg>
