<svg width="146" height="155" viewBox="0 0 146 155" fill="none" xmlns="http://www.w3.org/2000/svg">
<g clip-path="url(#clip0_10_415)">
<g clip-path="url(#clip1_10_415)">
<path d="M125.756 36.5232L117.313 19.5667C116.918 18.7717 116.103 18.2687 115.212 18.2687H112.37L108.867 11.2914C108.47 10.4999 107.658 10 106.77 10H39.2301C38.3418 10 37.5298 10.4999 37.1325 11.2914L33.6295 18.2687H30.7874C29.8964 18.2687 29.0825 18.7717 28.6865 19.5667L20.2441 36.5232C19.8838 37.2471 19.9244 38.1053 20.3523 38.792C20.7801 39.479 21.5336 39.8963 22.345 39.8963H31.0889L33.4474 56.9463H31.4898C31.0197 56.9463 30.5721 57.147 30.2605 57.4979C29.9488 57.8482 29.8033 58.3148 29.8601 58.7797L37.0877 117.638C37.1885 118.458 37.8879 119.074 38.7174 119.074H42.0414L45.3489 142.983C45.509 144.139 46.5005 145 47.672 145H98.327C99.499 145 100.49 144.139 100.65 142.983L103.958 119.074H107.282C108.111 119.074 108.81 118.458 108.911 117.638L116.139 58.7797C116.196 58.3148 116.051 57.8482 115.739 57.4979C115.427 57.147 114.98 56.9463 114.509 56.9463H112.552L114.91 39.8963H123.654C124.465 39.8963 125.219 39.479 125.647 38.792C126.075 38.105 126.117 37.2471 125.756 36.5232ZM96.2832 140.328H49.7166L46.7765 119.074H99.2233L96.2832 140.328ZM107.818 56.946H38.182L35.8235 39.896H110.176L107.818 56.946ZM112.876 35.2249C112.872 35.2249 112.87 35.2244 112.867 35.2244H33.133C33.1303 35.2244 33.1272 35.2249 33.1245 35.2249H26.1256L32.2422 22.9398H77.2208C78.5161 22.9398 79.5661 21.894 79.5661 20.604C79.5661 19.314 78.5161 18.2685 77.2208 18.2685H38.8734L40.6794 14.6714H105.321L107.126 18.2685H102.549C101.253 18.2685 100.203 19.3143 100.203 20.604C100.203 21.8938 101.253 22.9398 102.549 22.9398H113.757L119.874 35.2249H112.876Z" fill="#0085C3"/>
</g>
</g>
<defs>
<clipPath id="clip0_10_415">
<rect width="106" height="135" fill="white" transform="translate(20 10)"/>
</clipPath>
<clipPath id="clip1_10_415">
<rect width="106" height="135" fill="white" transform="translate(20 10)"/>
</clipPath>
</defs>
</svg>
