<svg width="106" height="135" viewBox="0 0 106 135" fill="none" xmlns="http://www.w3.org/2000/svg">
<g clip-path="url(#clip0_2_354)">
<g clip-path="url(#clip1_2_354)">
<path d="M105.756 26.5232L97.3133 9.56669C96.9176 8.77168 96.1034 8.26874 95.2124 8.26874H92.3698L88.8671 1.29138C88.47 0.499926 87.658 0 86.7697 0H19.2301C18.3418 0 17.5298 0.499926 17.1325 1.29138L13.6295 8.26874H10.7874C9.89635 8.26874 9.08245 8.77168 8.68649 9.56669L0.244071 26.5232C-0.116197 27.2471 -0.0755577 28.1053 0.352261 28.792C0.780079 29.479 1.53357 29.8963 2.345 29.8963H11.0889L13.4474 46.9463H11.4898C11.0197 46.9463 10.5721 47.147 10.2605 47.4979C9.9488 47.8482 9.80326 48.3148 9.86011 48.7797L17.0877 107.638C17.1885 108.458 17.8879 109.074 18.7174 109.074H22.0414L25.3489 132.983C25.509 134.139 26.5005 135 27.672 135H78.327C79.499 135 80.4903 134.139 80.6501 132.983L83.9576 109.074H87.2815C88.1111 109.074 88.8105 108.458 88.9113 107.638L96.1394 48.7797C96.1963 48.3148 96.0507 47.8482 95.7393 47.4979C95.4271 47.147 94.9795 46.9463 94.5094 46.9463H92.5516L94.9103 29.8963H103.654C104.465 29.8963 105.219 29.479 105.647 28.792C106.075 28.105 106.117 27.2471 105.756 26.5232ZM76.2832 130.328H29.7166L26.7765 109.074H79.2233L76.2832 130.328ZM87.8181 46.946H18.182L15.8235 29.896H90.1763L87.8181 46.946ZM92.8756 25.2249C92.872 25.2249 92.8698 25.2244 92.8668 25.2244H13.133C13.1303 25.2244 13.1272 25.2249 13.1245 25.2249H6.12562L12.2422 12.9398H57.2208C58.5161 12.9398 59.5661 11.894 59.5661 10.604C59.5661 9.31399 58.5161 8.26847 57.2208 8.26847H18.8734L20.6794 4.67135H85.3207L87.1264 8.26847H82.5486C81.2534 8.26847 80.2033 9.31427 80.2033 10.604C80.2033 11.8938 81.2534 12.9398 82.5486 12.9398H93.7573L99.8739 25.2249H92.8756Z" fill="#FBFBFB"/>
</g>
</g>
<defs>
<clipPath id="clip0_2_354">
<rect width="106" height="135" fill="white"/>
</clipPath>
<clipPath id="clip1_2_354">
<rect width="106" height="135" fill="white"/>
</clipPath>
</defs>
</svg>
